<svg width="1622" height="196" viewBox="0 0 1622 196" fill="none" xmlns="http://www.w3.org/2000/svg">
<path d="M0.00130208 60.3401C0.00130208 66.2311 4.77693 71.0068 10.668 71.0068C16.559 71.0068 21.3346 66.2311 21.3346 60.3401C21.3346 54.4491 16.559 49.6734 10.668 49.6734C4.77693 49.6734 0.00130208 54.4491 0.00130208 60.3401ZM1600 60.3401C1600 66.2311 1604.78 71.0068 1610.67 71.0068C1616.56 71.0068 1621.33 66.2311 1621.33 60.3401C1621.33 54.4491 1616.56 49.6734 1610.67 49.6734C1604.78 49.6734 1600 54.4491 1600 60.3401ZM10.668 60.3401V62.3401H23.168V60.3401V58.3401H10.668V60.3401ZM48.168 60.3401V62.3401H73.168V60.3401V58.3401H48.168V60.3401ZM98.168 60.3401V62.3401H123.168V60.3401V58.3401H98.168V60.3401ZM148.168 60.3401V62.3401H173.168V60.3401V58.3401H148.168V60.3401ZM198.168 60.3401V62.3401H223.168V60.3401V58.3401H198.168V60.3401ZM248.168 60.3401V62.3401H273.168V60.3401V58.3401H248.168V60.3401ZM298.168 60.3401V62.3401H323.168V60.3401V58.3401H298.168V60.3401ZM348.168 60.3401V62.3401H373.168V60.3401V58.3401H348.168V60.3401ZM398.168 60.3401V62.3401H423.168V60.3401V58.3401H398.168V60.3401ZM448.168 60.3401V62.3401H473.168V60.3401V58.3401H448.168V60.3401ZM498.168 60.3401V62.3401H523.168V60.3401V58.3401H498.168V60.3401ZM548.168 60.3401V62.3401H573.168V60.3401V58.3401H548.168V60.3401ZM598.168 60.3401V62.3401H623.168V60.3401V58.3401H598.168V60.3401ZM648.168 60.3401V62.3401H673.168V60.3401V58.3401H648.168V60.3401ZM698.168 60.3401V62.3401H723.168V60.3401V58.3401H698.168V60.3401ZM748.168 60.3401V62.3401H773.168V60.3401V58.3401H748.168V60.3401ZM798.168 60.3401V62.3401H823.168V60.3401V58.3401H798.168V60.3401ZM848.168 60.3401V62.3401H873.168V60.3401V58.3401H848.168V60.3401ZM898.168 60.3401V62.3401H923.168V60.3401V58.3401H898.168V60.3401ZM948.168 60.3401V62.3401H973.168V60.3401V58.3401H948.168V60.3401ZM998.168 60.3401V62.3401H1023.17V60.3401V58.3401H998.168V60.3401ZM1048.17 60.3401V62.3401H1073.17V60.3401V58.3401H1048.17V60.3401ZM1098.17 60.3401V62.3401H1123.17V60.3401V58.3401H1098.17V60.3401ZM1148.17 60.3401V62.3401H1173.17V60.3401V58.3401H1148.17V60.3401ZM1198.17 60.3401V62.3401H1223.17V60.3401V58.3401H1198.17V60.3401ZM1248.17 60.3401V62.3401H1273.17V60.3401V58.3401H1248.17V60.3401ZM1298.17 60.3401V62.3401H1323.17V60.3401V58.3401H1298.17V60.3401ZM1348.17 60.3401V62.3401H1373.17V60.3401V58.3401H1348.17V60.3401ZM1398.17 60.3401V62.3401H1423.17V60.3401V58.3401H1398.17V60.3401ZM1448.17 60.3401V62.3401H1473.17V60.3401V58.3401H1448.17V60.3401ZM1498.17 60.3401V62.3401H1523.17V60.3401V58.3401H1498.17V60.3401ZM1548.17 60.3401V62.3401H1573.17V60.3401V58.3401H1548.17V60.3401ZM1598.17 60.3401V62.3401H1610.67V60.3401V58.3401H1598.17V60.3401Z" fill="#FE8E48"/>
<rect x="140.137" y="60.3396" width="81.3333" height="81.3333" rx="6" transform="rotate(-45 140.137 60.3396)" fill="#FFE5D4" stroke="#FF7C2B" stroke-width="4"/>
<rect x="548.817" y="60.3396" width="81.3333" height="81.3333" rx="6" transform="rotate(-45 548.817 60.3396)" fill="#FF7C2B" stroke="#FF7C2B" stroke-width="4"/>
<rect x="957.496" y="60.3396" width="81.3333" height="81.3333" rx="6" transform="rotate(-45 957.496 60.3396)" fill="#FFE5D4" stroke="#FF7C2B" stroke-width="4"/>
<rect x="1366.18" y="60.3396" width="81.3333" height="81.3333" rx="6" transform="rotate(-45 1366.18 60.3396)" fill="#FF7C2B" stroke="#FF7C2B" stroke-width="4"/>
<path d="M144.871 174.68V157.88H152.167C153.175 157.88 154.095 158.12 154.927 158.6C155.759 159.064 156.415 159.704 156.895 160.52C157.391 161.32 157.639 162.224 157.639 163.232C157.639 164.192 157.391 165.08 156.895 165.896C156.415 166.696 155.759 167.336 154.927 167.816C154.111 168.28 153.191 168.512 152.167 168.512H147.919V174.68H144.871ZM154.615 174.68L150.343 167.096L153.559 166.496L158.311 174.704L154.615 174.68ZM147.919 165.8H152.191C152.655 165.8 153.055 165.696 153.391 165.488C153.743 165.264 154.015 164.96 154.207 164.576C154.399 164.192 154.495 163.768 154.495 163.304C154.495 162.776 154.375 162.32 154.135 161.936C153.895 161.552 153.559 161.248 153.127 161.024C152.695 160.8 152.199 160.688 151.639 160.688H147.919V165.8ZM166.536 174.92C165.208 174.92 164.032 174.64 163.008 174.08C162 173.52 161.208 172.76 160.632 171.8C160.072 170.824 159.792 169.712 159.792 168.464C159.792 167.472 159.952 166.568 160.272 165.752C160.592 164.936 161.032 164.232 161.592 163.64C162.168 163.032 162.848 162.568 163.632 162.248C164.432 161.912 165.304 161.744 166.248 161.744C167.08 161.744 167.856 161.904 168.576 162.224C169.296 162.544 169.92 162.984 170.448 163.544C170.976 164.088 171.376 164.744 171.648 165.512C171.936 166.264 172.072 167.088 172.056 167.984L172.032 169.016H161.784L161.232 167H169.56L169.176 167.408V166.88C169.128 166.384 168.968 165.952 168.696 165.584C168.424 165.2 168.072 164.904 167.64 164.696C167.224 164.472 166.76 164.36 166.248 164.36C165.464 164.36 164.8 164.512 164.256 164.816C163.728 165.12 163.328 165.56 163.056 166.136C162.784 166.696 162.648 167.4 162.648 168.248C162.648 169.064 162.816 169.776 163.152 170.384C163.504 170.992 163.992 171.464 164.616 171.8C165.256 172.12 166 172.28 166.848 172.28C167.44 172.28 167.984 172.184 168.48 171.992C168.976 171.8 169.512 171.456 170.088 170.96L171.552 173C171.12 173.4 170.624 173.744 170.064 174.032C169.52 174.304 168.944 174.52 168.336 174.68C167.728 174.84 167.128 174.92 166.536 174.92ZM178.895 174.92C177.775 174.92 176.767 174.736 175.871 174.368C174.991 173.984 174.271 173.44 173.711 172.736L175.631 171.08C176.111 171.624 176.647 172.016 177.239 172.256C177.831 172.496 178.455 172.616 179.111 172.616C179.383 172.616 179.623 172.584 179.831 172.52C180.055 172.456 180.247 172.36 180.407 172.232C180.567 172.104 180.687 171.96 180.767 171.8C180.863 171.624 180.911 171.432 180.911 171.224C180.911 170.84 180.767 170.536 180.479 170.312C180.319 170.2 180.063 170.08 179.711 169.952C179.375 169.824 178.935 169.696 178.391 169.568C177.527 169.344 176.807 169.088 176.231 168.8C175.655 168.496 175.207 168.16 174.887 167.792C174.615 167.488 174.407 167.144 174.263 166.76C174.135 166.376 174.071 165.96 174.071 165.512C174.071 164.952 174.191 164.448 174.431 164C174.687 163.536 175.031 163.136 175.463 162.8C175.895 162.464 176.399 162.208 176.975 162.032C177.551 161.856 178.151 161.768 178.775 161.768C179.415 161.768 180.031 161.848 180.623 162.008C181.231 162.168 181.791 162.4 182.303 162.704C182.831 162.992 183.279 163.344 183.647 163.76L182.015 165.56C181.711 165.272 181.375 165.016 181.007 164.792C180.655 164.568 180.295 164.392 179.927 164.264C179.559 164.12 179.215 164.048 178.895 164.048C178.591 164.048 178.319 164.08 178.079 164.144C177.839 164.192 177.639 164.272 177.479 164.384C177.319 164.496 177.191 164.64 177.095 164.816C177.015 164.976 176.975 165.168 176.975 165.392C176.991 165.584 177.039 165.768 177.119 165.944C177.215 166.104 177.343 166.24 177.503 166.352C177.679 166.464 177.943 166.592 178.295 166.736C178.647 166.88 179.103 167.016 179.663 167.144C180.447 167.352 181.103 167.584 181.631 167.84C182.159 168.096 182.575 168.392 182.879 168.728C183.183 169.016 183.399 169.352 183.527 169.736C183.655 170.12 183.719 170.544 183.719 171.008C183.719 171.76 183.503 172.432 183.071 173.024C182.655 173.616 182.079 174.08 181.343 174.416C180.623 174.752 179.807 174.92 178.895 174.92ZM192.247 174.92C190.919 174.92 189.743 174.64 188.719 174.08C187.711 173.52 186.919 172.76 186.343 171.8C185.783 170.824 185.503 169.712 185.503 168.464C185.503 167.472 185.663 166.568 185.983 165.752C186.303 164.936 186.743 164.232 187.303 163.64C187.879 163.032 188.559 162.568 189.343 162.248C190.143 161.912 191.015 161.744 191.959 161.744C192.791 161.744 193.567 161.904 194.287 162.224C195.007 162.544 195.631 162.984 196.159 163.544C196.687 164.088 197.087 164.744 197.359 165.512C197.647 166.264 197.783 167.088 197.767 167.984L197.743 169.016H187.495L186.943 167H195.271L194.887 167.408V166.88C194.839 166.384 194.679 165.952 194.407 165.584C194.135 165.2 193.783 164.904 193.351 164.696C192.935 164.472 192.471 164.36 191.959 164.36C191.175 164.36 190.511 164.512 189.967 164.816C189.439 165.12 189.039 165.56 188.767 166.136C188.495 166.696 188.359 167.4 188.359 168.248C188.359 169.064 188.527 169.776 188.863 170.384C189.215 170.992 189.703 171.464 190.327 171.8C190.967 172.12 191.711 172.28 192.559 172.28C193.151 172.28 193.695 172.184 194.191 171.992C194.687 171.8 195.223 171.456 195.799 170.96L197.263 173C196.831 173.4 196.335 173.744 195.775 174.032C195.231 174.304 194.655 174.52 194.047 174.68C193.439 174.84 192.839 174.92 192.247 174.92ZM205.158 174.92C204.118 174.92 203.174 174.632 202.326 174.056C201.478 173.48 200.798 172.696 200.286 171.704C199.774 170.712 199.518 169.584 199.518 168.32C199.518 167.056 199.774 165.928 200.286 164.936C200.798 163.944 201.494 163.168 202.374 162.608C203.254 162.048 204.246 161.768 205.35 161.768C205.99 161.768 206.574 161.864 207.102 162.056C207.63 162.232 208.094 162.488 208.494 162.824C208.894 163.16 209.222 163.544 209.478 163.976C209.75 164.408 209.934 164.872 210.03 165.368L209.382 165.2V162.032H212.358V174.68H209.358V171.656L210.054 171.536C209.942 171.968 209.734 172.392 209.43 172.808C209.142 173.208 208.774 173.568 208.326 173.888C207.894 174.192 207.406 174.44 206.862 174.632C206.334 174.824 205.766 174.92 205.158 174.92ZM205.974 172.304C206.662 172.304 207.27 172.136 207.798 171.8C208.326 171.464 208.734 171 209.022 170.408C209.326 169.8 209.478 169.104 209.478 168.32C209.478 167.552 209.326 166.872 209.022 166.28C208.734 165.688 208.326 165.224 207.798 164.888C207.27 164.552 206.662 164.384 205.974 164.384C205.286 164.384 204.678 164.552 204.15 164.888C203.638 165.224 203.238 165.688 202.95 166.28C202.662 166.872 202.518 167.552 202.518 168.32C202.518 169.104 202.662 169.8 202.95 170.408C203.238 171 203.638 171.464 204.15 171.8C204.678 172.136 205.286 172.304 205.974 172.304ZM215.78 174.68V162.032H218.684L218.732 166.064L218.324 165.152C218.5 164.512 218.804 163.936 219.236 163.424C219.668 162.912 220.164 162.512 220.724 162.224C221.3 161.92 221.9 161.768 222.524 161.768C222.796 161.768 223.052 161.792 223.292 161.84C223.548 161.888 223.756 161.944 223.916 162.008L223.124 165.248C222.948 165.152 222.732 165.072 222.476 165.008C222.22 164.944 221.964 164.912 221.708 164.912C221.308 164.912 220.924 164.992 220.556 165.152C220.204 165.296 219.892 165.504 219.62 165.776C219.348 166.048 219.132 166.368 218.972 166.736C218.828 167.088 218.756 167.488 218.756 167.936V174.68H215.78ZM230.767 174.92C229.583 174.92 228.519 174.632 227.575 174.056C226.631 173.48 225.887 172.696 225.343 171.704C224.799 170.712 224.527 169.592 224.527 168.344C224.527 167.096 224.799 165.976 225.343 164.984C225.887 163.992 226.631 163.208 227.575 162.632C228.519 162.056 229.583 161.768 230.767 161.768C231.903 161.768 232.935 161.984 233.863 162.416C234.791 162.848 235.511 163.448 236.023 164.216L234.391 166.184C234.151 165.848 233.847 165.544 233.479 165.272C233.111 165 232.719 164.784 232.303 164.624C231.887 164.464 231.471 164.384 231.055 164.384C230.351 164.384 229.719 164.56 229.159 164.912C228.615 165.248 228.183 165.72 227.863 166.328C227.543 166.92 227.383 167.592 227.383 168.344C227.383 169.096 227.543 169.768 227.863 170.36C228.199 170.952 228.647 171.424 229.207 171.776C229.767 172.128 230.391 172.304 231.079 172.304C231.495 172.304 231.895 172.24 232.279 172.112C232.679 171.968 233.055 171.768 233.407 171.512C233.759 171.256 234.087 170.936 234.391 170.552L236.023 172.544C235.479 173.248 234.727 173.824 233.767 174.272C232.823 174.704 231.823 174.92 230.767 174.92ZM238.28 174.68V156.92H241.208V164.624L240.656 164.912C240.816 164.336 241.128 163.816 241.592 163.352C242.056 162.872 242.608 162.488 243.248 162.2C243.888 161.912 244.544 161.768 245.216 161.768C246.176 161.768 246.976 161.96 247.616 162.344C248.272 162.728 248.76 163.304 249.08 164.072C249.416 164.84 249.584 165.8 249.584 166.952V174.68H246.632V167.168C246.632 166.528 246.544 166 246.368 165.584C246.192 165.152 245.92 164.84 245.552 164.648C245.184 164.44 244.736 164.344 244.208 164.36C243.776 164.36 243.376 164.432 243.008 164.576C242.656 164.704 242.344 164.896 242.072 165.152C241.816 165.392 241.608 165.672 241.448 165.992C241.304 166.312 241.232 166.664 241.232 167.048V174.68H239.768C239.48 174.68 239.208 174.68 238.952 174.68C238.712 174.68 238.488 174.68 238.28 174.68Z" fill="#595959"/>
<path d="M543.176 174.68L537.944 157.88H541.208L544.184 167.792C544.28 168.096 544.368 168.432 544.448 168.8C544.528 169.168 544.6 169.536 544.664 169.904C544.728 170.256 544.784 170.584 544.832 170.888C544.88 171.192 544.928 171.448 544.976 171.656L544.328 171.632C544.52 170.88 544.672 170.272 544.784 169.808C544.896 169.344 544.992 168.96 545.072 168.656C545.168 168.336 545.264 168.04 545.36 167.768L548.192 160.52H550.856L553.616 167.768C553.776 168.216 553.92 168.648 554.048 169.064C554.176 169.464 554.28 169.864 554.36 170.264C554.456 170.648 554.544 171.048 554.624 171.464L554.048 171.584C554.112 171.2 554.16 170.888 554.192 170.648C554.224 170.408 554.256 170.192 554.288 170C554.32 169.808 554.352 169.624 554.384 169.448C554.416 169.256 554.464 169.032 554.528 168.776C554.608 168.504 554.704 168.16 554.816 167.744L557.768 157.88H561.008L555.752 174.68H553.496L549.224 164.456L549.512 164.552L545.456 174.68H543.176ZM563.483 174.68V162.032H566.435V174.68H563.483ZM564.923 159.344C564.331 159.344 563.867 159.2 563.531 158.912C563.211 158.608 563.051 158.184 563.051 157.64C563.051 157.128 563.219 156.712 563.555 156.392C563.891 156.072 564.347 155.912 564.923 155.912C565.531 155.912 565.995 156.064 566.315 156.368C566.651 156.656 566.819 157.08 566.819 157.64C566.819 158.136 566.651 158.544 566.315 158.864C565.979 159.184 565.515 159.344 564.923 159.344ZM570.179 174.68V162.032H573.083L573.131 166.064L572.723 165.152C572.899 164.512 573.203 163.936 573.635 163.424C574.067 162.912 574.563 162.512 575.123 162.224C575.699 161.92 576.299 161.768 576.923 161.768C577.195 161.768 577.451 161.792 577.691 161.84C577.947 161.888 578.155 161.944 578.315 162.008L577.523 165.248C577.347 165.152 577.131 165.072 576.875 165.008C576.619 164.944 576.363 164.912 576.107 164.912C575.707 164.912 575.323 164.992 574.955 165.152C574.603 165.296 574.291 165.504 574.019 165.776C573.747 166.048 573.531 166.368 573.371 166.736C573.227 167.088 573.155 167.488 573.155 167.936V174.68H570.179ZM585.669 174.92C584.341 174.92 583.165 174.64 582.141 174.08C581.133 173.52 580.341 172.76 579.765 171.8C579.205 170.824 578.925 169.712 578.925 168.464C578.925 167.472 579.085 166.568 579.405 165.752C579.725 164.936 580.165 164.232 580.725 163.64C581.301 163.032 581.981 162.568 582.765 162.248C583.565 161.912 584.437 161.744 585.381 161.744C586.213 161.744 586.989 161.904 587.709 162.224C588.429 162.544 589.053 162.984 589.581 163.544C590.109 164.088 590.509 164.744 590.781 165.512C591.069 166.264 591.205 167.088 591.189 167.984L591.165 169.016H580.917L580.365 167H588.693L588.309 167.408V166.88C588.261 166.384 588.101 165.952 587.829 165.584C587.557 165.2 587.205 164.904 586.773 164.696C586.357 164.472 585.893 164.36 585.381 164.36C584.597 164.36 583.933 164.512 583.389 164.816C582.861 165.12 582.461 165.56 582.189 166.136C581.917 166.696 581.781 167.4 581.781 168.248C581.781 169.064 581.949 169.776 582.285 170.384C582.637 170.992 583.125 171.464 583.749 171.8C584.389 172.12 585.133 172.28 585.981 172.28C586.573 172.28 587.117 172.184 587.613 171.992C588.109 171.8 588.645 171.456 589.221 170.96L590.685 173C590.253 173.4 589.757 173.744 589.197 174.032C588.653 174.304 588.077 174.52 587.469 174.68C586.861 174.84 586.261 174.92 585.669 174.92ZM594.956 174.68V160.904C594.956 160.136 595.124 159.456 595.46 158.864C595.796 158.256 596.26 157.784 596.852 157.448C597.444 157.096 598.132 156.92 598.916 156.92C599.46 156.92 599.964 157.016 600.428 157.208C600.892 157.384 601.284 157.632 601.604 157.952L600.692 160.184C600.484 160.008 600.26 159.872 600.02 159.776C599.796 159.68 599.58 159.632 599.372 159.632C599.052 159.632 598.78 159.688 598.556 159.8C598.348 159.896 598.188 160.048 598.076 160.256C597.98 160.464 597.932 160.712 597.932 161V174.68H596.444C596.156 174.68 595.884 174.68 595.628 174.68C595.388 174.68 595.164 174.68 594.956 174.68ZM592.988 164.888V162.296H600.788V164.888H592.988ZM603.225 174.68V162.032H606.129L606.177 166.064L605.769 165.152C605.945 164.512 606.249 163.936 606.681 163.424C607.113 162.912 607.609 162.512 608.169 162.224C608.745 161.92 609.345 161.768 609.969 161.768C610.241 161.768 610.497 161.792 610.737 161.84C610.993 161.888 611.201 161.944 611.361 162.008L610.569 165.248C610.393 165.152 610.177 165.072 609.921 165.008C609.665 164.944 609.409 164.912 609.153 164.912C608.753 164.912 608.369 164.992 608.001 165.152C607.649 165.296 607.337 165.504 607.065 165.776C606.793 166.048 606.577 166.368 606.417 166.736C606.273 167.088 606.201 167.488 606.201 167.936V174.68H603.225ZM617.564 174.92C616.524 174.92 615.58 174.632 614.732 174.056C613.884 173.48 613.204 172.696 612.692 171.704C612.18 170.712 611.924 169.584 611.924 168.32C611.924 167.056 612.18 165.928 612.692 164.936C613.204 163.944 613.9 163.168 614.78 162.608C615.66 162.048 616.652 161.768 617.756 161.768C618.396 161.768 618.98 161.864 619.508 162.056C620.036 162.232 620.5 162.488 620.9 162.824C621.3 163.16 621.628 163.544 621.884 163.976C622.156 164.408 622.34 164.872 622.436 165.368L621.788 165.2V162.032H624.764V174.68H621.764V171.656L622.46 171.536C622.348 171.968 622.14 172.392 621.836 172.808C621.548 173.208 621.18 173.568 620.732 173.888C620.3 174.192 619.812 174.44 619.268 174.632C618.74 174.824 618.172 174.92 617.564 174.92ZM618.38 172.304C619.068 172.304 619.676 172.136 620.204 171.8C620.732 171.464 621.14 171 621.428 170.408C621.732 169.8 621.884 169.104 621.884 168.32C621.884 167.552 621.732 166.872 621.428 166.28C621.14 165.688 620.732 165.224 620.204 164.888C619.676 164.552 619.068 164.384 618.38 164.384C617.692 164.384 617.084 164.552 616.556 164.888C616.044 165.224 615.644 165.688 615.356 166.28C615.068 166.872 614.924 167.552 614.924 168.32C614.924 169.104 615.068 169.8 615.356 170.408C615.644 171 616.044 171.464 616.556 171.8C617.084 172.136 617.692 172.304 618.38 172.304ZM628.138 174.68V162.032H631.042L631.09 164.576L630.61 164.768C630.754 164.352 630.97 163.968 631.258 163.616C631.546 163.248 631.89 162.936 632.29 162.68C632.69 162.408 633.114 162.2 633.562 162.056C634.01 161.896 634.466 161.816 634.93 161.816C635.618 161.816 636.226 161.928 636.754 162.152C637.298 162.36 637.746 162.696 638.098 163.16C638.466 163.624 638.738 164.216 638.914 164.936L638.458 164.84L638.65 164.456C638.826 164.072 639.074 163.728 639.394 163.424C639.714 163.104 640.074 162.824 640.474 162.584C640.874 162.328 641.29 162.136 641.722 162.008C642.17 161.88 642.61 161.816 643.042 161.816C644.002 161.816 644.802 162.008 645.442 162.392C646.082 162.776 646.562 163.36 646.882 164.144C647.202 164.928 647.362 165.896 647.362 167.048V174.68H644.386V167.24C644.386 166.6 644.298 166.072 644.122 165.656C643.962 165.24 643.706 164.936 643.354 164.744C643.018 164.536 642.594 164.432 642.082 164.432C641.682 164.432 641.298 164.504 640.93 164.648C640.578 164.776 640.274 164.968 640.018 165.224C639.762 165.464 639.562 165.744 639.418 166.064C639.274 166.384 639.202 166.736 639.202 167.12V174.68H636.226V167.216C636.226 166.608 636.138 166.104 635.962 165.704C635.786 165.288 635.53 164.976 635.194 164.768C634.858 164.544 634.45 164.432 633.97 164.432C633.57 164.432 633.194 164.504 632.842 164.648C632.49 164.776 632.186 164.96 631.93 165.2C631.674 165.44 631.474 165.72 631.33 166.04C631.186 166.36 631.114 166.712 631.114 167.096V174.68H628.138ZM656.567 174.92C655.239 174.92 654.063 174.64 653.039 174.08C652.031 173.52 651.239 172.76 650.663 171.8C650.103 170.824 649.823 169.712 649.823 168.464C649.823 167.472 649.983 166.568 650.303 165.752C650.623 164.936 651.063 164.232 651.623 163.64C652.199 163.032 652.879 162.568 653.663 162.248C654.463 161.912 655.335 161.744 656.279 161.744C657.111 161.744 657.887 161.904 658.607 162.224C659.327 162.544 659.951 162.984 660.479 163.544C661.007 164.088 661.407 164.744 661.679 165.512C661.967 166.264 662.103 167.088 662.087 167.984L662.063 169.016H651.815L651.263 167H659.591L659.207 167.408V166.88C659.159 166.384 658.999 165.952 658.727 165.584C658.455 165.2 658.103 164.904 657.671 164.696C657.255 164.472 656.791 164.36 656.279 164.36C655.495 164.36 654.831 164.512 654.287 164.816C653.759 165.12 653.359 165.56 653.087 166.136C652.815 166.696 652.679 167.4 652.679 168.248C652.679 169.064 652.847 169.776 653.183 170.384C653.535 170.992 654.023 171.464 654.647 171.8C655.287 172.12 656.031 172.28 656.879 172.28C657.471 172.28 658.015 172.184 658.511 171.992C659.007 171.8 659.543 171.456 660.119 170.96L661.583 173C661.151 173.4 660.655 173.744 660.095 174.032C659.551 174.304 658.975 174.52 658.367 174.68C657.759 174.84 657.159 174.92 656.567 174.92ZM668.926 174.92C667.806 174.92 666.798 174.736 665.902 174.368C665.022 173.984 664.302 173.44 663.742 172.736L665.662 171.08C666.142 171.624 666.678 172.016 667.27 172.256C667.862 172.496 668.486 172.616 669.142 172.616C669.414 172.616 669.654 172.584 669.862 172.52C670.086 172.456 670.278 172.36 670.438 172.232C670.598 172.104 670.718 171.96 670.798 171.8C670.894 171.624 670.942 171.432 670.942 171.224C670.942 170.84 670.798 170.536 670.51 170.312C670.35 170.2 670.094 170.08 669.742 169.952C669.406 169.824 668.966 169.696 668.422 169.568C667.558 169.344 666.838 169.088 666.262 168.8C665.686 168.496 665.238 168.16 664.918 167.792C664.646 167.488 664.438 167.144 664.294 166.76C664.166 166.376 664.102 165.96 664.102 165.512C664.102 164.952 664.222 164.448 664.462 164C664.718 163.536 665.062 163.136 665.494 162.8C665.926 162.464 666.43 162.208 667.006 162.032C667.582 161.856 668.182 161.768 668.806 161.768C669.446 161.768 670.062 161.848 670.654 162.008C671.262 162.168 671.822 162.4 672.334 162.704C672.862 162.992 673.31 163.344 673.678 163.76L672.046 165.56C671.742 165.272 671.406 165.016 671.038 164.792C670.686 164.568 670.326 164.392 669.958 164.264C669.59 164.12 669.246 164.048 668.926 164.048C668.622 164.048 668.35 164.08 668.11 164.144C667.87 164.192 667.67 164.272 667.51 164.384C667.35 164.496 667.222 164.64 667.126 164.816C667.046 164.976 667.006 165.168 667.006 165.392C667.022 165.584 667.07 165.768 667.15 165.944C667.246 166.104 667.374 166.24 667.534 166.352C667.71 166.464 667.974 166.592 668.326 166.736C668.678 166.88 669.134 167.016 669.694 167.144C670.478 167.352 671.134 167.584 671.662 167.84C672.19 168.096 672.606 168.392 672.91 168.728C673.214 169.016 673.43 169.352 673.558 169.736C673.686 170.12 673.75 170.544 673.75 171.008C673.75 171.76 673.534 172.432 673.102 173.024C672.686 173.616 672.11 174.08 671.374 174.416C670.654 174.752 669.838 174.92 668.926 174.92Z" fill="#595959"/>
<path d="M967.824 174.92C966.848 174.92 965.952 174.8 965.136 174.56C964.32 174.304 963.584 173.928 962.928 173.432C962.272 172.936 961.688 172.336 961.176 171.632L963.216 169.328C964 170.416 964.768 171.168 965.52 171.584C966.272 172 967.12 172.208 968.064 172.208C968.608 172.208 969.104 172.128 969.552 171.968C970 171.792 970.352 171.56 970.608 171.272C970.864 170.968 970.992 170.624 970.992 170.24C970.992 169.968 970.936 169.72 970.824 169.496C970.728 169.256 970.576 169.048 970.368 168.872C970.16 168.68 969.904 168.504 969.6 168.344C969.296 168.184 968.952 168.048 968.568 167.936C968.184 167.824 967.76 167.72 967.296 167.624C966.416 167.448 965.648 167.216 964.992 166.928C964.336 166.624 963.784 166.256 963.336 165.824C962.888 165.376 962.56 164.88 962.352 164.336C962.144 163.776 962.04 163.144 962.04 162.44C962.04 161.736 962.192 161.088 962.496 160.496C962.816 159.904 963.248 159.392 963.792 158.96C964.336 158.528 964.968 158.192 965.688 157.952C966.408 157.712 967.184 157.592 968.016 157.592C968.96 157.592 969.8 157.704 970.536 157.928C971.288 158.152 971.944 158.488 972.504 158.936C973.08 159.368 973.552 159.896 973.92 160.52L971.856 162.56C971.536 162.064 971.176 161.656 970.776 161.336C970.376 161 969.944 160.752 969.48 160.592C969.016 160.416 968.528 160.328 968.016 160.328C967.44 160.328 966.936 160.408 966.504 160.568C966.088 160.728 965.76 160.96 965.52 161.264C965.28 161.552 965.16 161.904 965.16 162.32C965.16 162.64 965.232 162.928 965.376 163.184C965.52 163.424 965.72 163.64 965.976 163.832C966.248 164.024 966.592 164.192 967.008 164.336C967.424 164.48 967.896 164.608 968.424 164.72C969.304 164.896 970.096 165.136 970.8 165.44C971.504 165.728 972.104 166.08 972.6 166.496C973.096 166.896 973.472 167.36 973.728 167.888C973.984 168.4 974.112 168.976 974.112 169.616C974.112 170.72 973.848 171.672 973.32 172.472C972.808 173.256 972.08 173.864 971.136 174.296C970.192 174.712 969.088 174.92 967.824 174.92ZM978.382 174.68V158.816H981.334V174.68H978.382ZM975.886 164.768V162.032H984.094V164.768H975.886ZM986.343 174.68V162.032H989.247L989.295 166.064L988.887 165.152C989.063 164.512 989.367 163.936 989.799 163.424C990.231 162.912 990.727 162.512 991.287 162.224C991.863 161.92 992.463 161.768 993.087 161.768C993.359 161.768 993.615 161.792 993.855 161.84C994.111 161.888 994.319 161.944 994.479 162.008L993.687 165.248C993.511 165.152 993.295 165.072 993.039 165.008C992.783 164.944 992.527 164.912 992.271 164.912C991.871 164.912 991.487 164.992 991.119 165.152C990.767 165.296 990.455 165.504 990.183 165.776C989.911 166.048 989.695 166.368 989.535 166.736C989.391 167.088 989.319 167.488 989.319 167.936V174.68H986.343ZM1000.84 174.92C999.924 174.92 999.132 174.72 998.46 174.32C997.788 173.904 997.276 173.32 996.924 172.568C996.572 171.8 996.396 170.888 996.396 169.832V162.032H999.348V169.208C999.348 169.88 999.452 170.456 999.66 170.936C999.868 171.4 1000.17 171.76 1000.57 172.016C1000.97 172.272 1001.45 172.4 1002.01 172.4C1002.43 172.4 1002.8 172.336 1003.14 172.208C1003.49 172.064 1003.8 171.872 1004.05 171.632C1004.31 171.376 1004.51 171.08 1004.65 170.744C1004.8 170.392 1004.87 170.016 1004.87 169.616V162.032H1007.82V174.68H1004.94L1004.89 172.04L1005.42 171.752C1005.23 172.36 1004.9 172.904 1004.44 173.384C1003.99 173.848 1003.45 174.224 1002.83 174.512C1002.2 174.784 1001.54 174.92 1000.84 174.92ZM1016.7 174.92C1015.52 174.92 1014.46 174.632 1013.51 174.056C1012.57 173.48 1011.82 172.696 1011.28 171.704C1010.74 170.712 1010.46 169.592 1010.46 168.344C1010.46 167.096 1010.74 165.976 1011.28 164.984C1011.82 163.992 1012.57 163.208 1013.51 162.632C1014.46 162.056 1015.52 161.768 1016.7 161.768C1017.84 161.768 1018.87 161.984 1019.8 162.416C1020.73 162.848 1021.45 163.448 1021.96 164.216L1020.33 166.184C1020.09 165.848 1019.78 165.544 1019.42 165.272C1019.05 165 1018.66 164.784 1018.24 164.624C1017.82 164.464 1017.41 164.384 1016.99 164.384C1016.29 164.384 1015.66 164.56 1015.1 164.912C1014.55 165.248 1014.12 165.72 1013.8 166.328C1013.48 166.92 1013.32 167.592 1013.32 168.344C1013.32 169.096 1013.48 169.768 1013.8 170.36C1014.14 170.952 1014.58 171.424 1015.14 171.776C1015.7 172.128 1016.33 172.304 1017.02 172.304C1017.43 172.304 1017.83 172.24 1018.22 172.112C1018.62 171.968 1018.99 171.768 1019.34 171.512C1019.7 171.256 1020.02 170.936 1020.33 170.552L1021.96 172.544C1021.42 173.248 1020.66 173.824 1019.7 174.272C1018.76 174.704 1017.76 174.92 1016.7 174.92ZM1025.59 174.68V158.816H1028.54V174.68H1025.59ZM1023.09 164.768V162.032H1031.3V164.768H1023.09ZM1037.94 174.92C1037.03 174.92 1036.23 174.72 1035.56 174.32C1034.89 173.904 1034.38 173.32 1034.03 172.568C1033.67 171.8 1033.5 170.888 1033.5 169.832V162.032H1036.45V169.208C1036.45 169.88 1036.55 170.456 1036.76 170.936C1036.97 171.4 1037.27 171.76 1037.67 172.016C1038.07 172.272 1038.55 172.4 1039.11 172.4C1039.53 172.4 1039.91 172.336 1040.24 172.208C1040.59 172.064 1040.9 171.872 1041.15 171.632C1041.41 171.376 1041.61 171.08 1041.75 170.744C1041.9 170.392 1041.97 170.016 1041.97 169.616V162.032H1044.92V174.68H1042.04L1041.99 172.04L1042.52 171.752C1042.33 172.36 1042 172.904 1041.54 173.384C1041.09 173.848 1040.55 174.224 1039.93 174.512C1039.31 174.784 1038.64 174.92 1037.94 174.92ZM1048.38 174.68V162.032H1051.29L1051.33 166.064L1050.93 165.152C1051.1 164.512 1051.41 163.936 1051.84 163.424C1052.27 162.912 1052.77 162.512 1053.33 162.224C1053.9 161.92 1054.5 161.768 1055.13 161.768C1055.4 161.768 1055.65 161.792 1055.89 161.84C1056.15 161.888 1056.36 161.944 1056.52 162.008L1055.73 165.248C1055.55 165.152 1055.33 165.072 1055.08 165.008C1054.82 164.944 1054.57 164.912 1054.31 164.912C1053.91 164.912 1053.53 164.992 1053.16 165.152C1052.81 165.296 1052.49 165.504 1052.22 165.776C1051.95 166.048 1051.73 166.368 1051.57 166.736C1051.43 167.088 1051.36 167.488 1051.36 167.936V174.68H1048.38ZM1063.87 174.92C1062.54 174.92 1061.37 174.64 1060.34 174.08C1059.34 173.52 1058.54 172.76 1057.97 171.8C1057.41 170.824 1057.13 169.712 1057.13 168.464C1057.13 167.472 1057.29 166.568 1057.61 165.752C1057.93 164.936 1058.37 164.232 1058.93 163.64C1059.5 163.032 1060.18 162.568 1060.97 162.248C1061.77 161.912 1062.64 161.744 1063.58 161.744C1064.42 161.744 1065.19 161.904 1065.91 162.224C1066.63 162.544 1067.26 162.984 1067.78 163.544C1068.31 164.088 1068.71 164.744 1068.98 165.512C1069.27 166.264 1069.41 167.088 1069.39 167.984L1069.37 169.016H1059.12L1058.57 167H1066.9L1066.51 167.408V166.88C1066.46 166.384 1066.3 165.952 1066.03 165.584C1065.76 165.2 1065.41 164.904 1064.98 164.696C1064.56 164.472 1064.1 164.36 1063.58 164.36C1062.8 164.36 1062.14 164.512 1061.59 164.816C1061.06 165.12 1060.66 165.56 1060.39 166.136C1060.12 166.696 1059.98 167.4 1059.98 168.248C1059.98 169.064 1060.15 169.776 1060.49 170.384C1060.84 170.992 1061.33 171.464 1061.95 171.8C1062.59 172.12 1063.34 172.28 1064.18 172.28C1064.78 172.28 1065.32 172.184 1065.82 171.992C1066.31 171.8 1066.85 171.456 1067.42 170.96L1068.89 173C1068.46 173.4 1067.96 173.744 1067.4 174.032C1066.86 174.304 1066.28 174.52 1065.67 174.68C1065.06 174.84 1064.46 174.92 1063.87 174.92Z" fill="#595959"/>
<path d="M1373.04 174.68V171.92H1375.8V160.64H1373.04V157.88H1381.68V160.64H1378.92V171.92H1381.68V174.68H1373.04ZM1386.5 174.68V158.816H1389.45V174.68H1386.5ZM1384 164.768V162.032H1392.21V164.768H1384ZM1400.27 174.92C1398.94 174.92 1397.77 174.64 1396.74 174.08C1395.73 173.52 1394.94 172.76 1394.37 171.8C1393.81 170.824 1393.53 169.712 1393.53 168.464C1393.53 167.472 1393.69 166.568 1394.01 165.752C1394.33 164.936 1394.77 164.232 1395.33 163.64C1395.9 163.032 1396.58 162.568 1397.37 162.248C1398.17 161.912 1399.04 161.744 1399.98 161.744C1400.81 161.744 1401.59 161.904 1402.31 162.224C1403.03 162.544 1403.65 162.984 1404.18 163.544C1404.71 164.088 1405.11 164.744 1405.38 165.512C1405.67 166.264 1405.81 167.088 1405.79 167.984L1405.77 169.016H1395.52L1394.97 167H1403.29L1402.91 167.408V166.88C1402.86 166.384 1402.7 165.952 1402.43 165.584C1402.16 165.2 1401.81 164.904 1401.37 164.696C1400.96 164.472 1400.49 164.36 1399.98 164.36C1399.2 164.36 1398.53 164.512 1397.99 164.816C1397.46 165.12 1397.06 165.56 1396.79 166.136C1396.52 166.696 1396.38 167.4 1396.38 168.248C1396.38 169.064 1396.55 169.776 1396.89 170.384C1397.24 170.992 1397.73 171.464 1398.35 171.8C1398.99 172.12 1399.73 172.28 1400.58 172.28C1401.17 172.28 1401.72 172.184 1402.21 171.992C1402.71 171.8 1403.25 171.456 1403.82 170.96L1405.29 173C1404.85 173.4 1404.36 173.744 1403.8 174.032C1403.25 174.304 1402.68 174.52 1402.07 174.68C1401.46 174.84 1400.86 174.92 1400.27 174.92ZM1408.41 174.68V162.032H1411.31L1411.36 166.064L1410.95 165.152C1411.13 164.512 1411.43 163.936 1411.86 163.424C1412.29 162.912 1412.79 162.512 1413.35 162.224C1413.93 161.92 1414.53 161.768 1415.15 161.768C1415.42 161.768 1415.68 161.792 1415.92 161.84C1416.17 161.888 1416.38 161.944 1416.54 162.008L1415.75 165.248C1415.57 165.152 1415.36 165.072 1415.1 165.008C1414.85 164.944 1414.59 164.912 1414.33 164.912C1413.93 164.912 1413.55 164.992 1413.18 165.152C1412.83 165.296 1412.52 165.504 1412.25 165.776C1411.97 166.048 1411.76 166.368 1411.6 166.736C1411.45 167.088 1411.38 167.488 1411.38 167.936V174.68H1408.41ZM1422.74 174.92C1421.7 174.92 1420.76 174.632 1419.91 174.056C1419.06 173.48 1418.38 172.696 1417.87 171.704C1417.36 170.712 1417.1 169.584 1417.1 168.32C1417.1 167.056 1417.36 165.928 1417.87 164.936C1418.38 163.944 1419.08 163.168 1419.96 162.608C1420.84 162.048 1421.83 161.768 1422.94 161.768C1423.58 161.768 1424.16 161.864 1424.69 162.056C1425.22 162.232 1425.68 162.488 1426.08 162.824C1426.48 163.16 1426.81 163.544 1427.06 163.976C1427.34 164.408 1427.52 164.872 1427.62 165.368L1426.97 165.2V162.032H1429.94V174.68H1426.94V171.656L1427.64 171.536C1427.53 171.968 1427.32 172.392 1427.02 172.808C1426.73 173.208 1426.36 173.568 1425.91 173.888C1425.48 174.192 1424.99 174.44 1424.45 174.632C1423.92 174.824 1423.35 174.92 1422.74 174.92ZM1423.56 172.304C1424.25 172.304 1424.86 172.136 1425.38 171.8C1425.91 171.464 1426.32 171 1426.61 170.408C1426.91 169.8 1427.06 169.104 1427.06 168.32C1427.06 167.552 1426.91 166.872 1426.61 166.28C1426.32 165.688 1425.91 165.224 1425.38 164.888C1424.86 164.552 1424.25 164.384 1423.56 164.384C1422.87 164.384 1422.26 164.552 1421.74 164.888C1421.22 165.224 1420.82 165.688 1420.54 166.28C1420.25 166.872 1420.1 167.552 1420.1 168.32C1420.1 169.104 1420.25 169.8 1420.54 170.408C1420.82 171 1421.22 171.464 1421.74 171.8C1422.26 172.136 1422.87 172.304 1423.56 172.304ZM1434.73 174.68V158.816H1437.69V174.68H1434.73ZM1432.24 164.768V162.032H1440.45V164.768H1432.24ZM1443.03 174.68V162.032H1445.98V174.68H1443.03ZM1444.47 159.344C1443.88 159.344 1443.41 159.2 1443.08 158.912C1442.76 158.608 1442.6 158.184 1442.6 157.64C1442.6 157.128 1442.77 156.712 1443.1 156.392C1443.44 156.072 1443.89 155.912 1444.47 155.912C1445.08 155.912 1445.54 156.064 1445.86 156.368C1446.2 156.656 1446.37 157.08 1446.37 157.64C1446.37 158.136 1446.2 158.544 1445.86 158.864C1445.53 159.184 1445.06 159.344 1444.47 159.344ZM1455.51 174.92C1454.25 174.92 1453.12 174.64 1452.13 174.08C1451.13 173.504 1450.35 172.72 1449.77 171.728C1449.2 170.736 1448.91 169.608 1448.91 168.344C1448.91 167.08 1449.2 165.952 1449.77 164.96C1450.35 163.968 1451.13 163.192 1452.13 162.632C1453.12 162.056 1454.25 161.768 1455.51 161.768C1456.76 161.768 1457.88 162.056 1458.87 162.632C1459.86 163.192 1460.64 163.968 1461.2 164.96C1461.77 165.952 1462.06 167.08 1462.06 168.344C1462.06 169.608 1461.77 170.736 1461.2 171.728C1460.64 172.72 1459.86 173.504 1458.87 174.08C1457.88 174.64 1456.76 174.92 1455.51 174.92ZM1455.51 172.304C1456.2 172.304 1456.81 172.128 1457.33 171.776C1457.88 171.424 1458.3 170.952 1458.61 170.36C1458.93 169.768 1459.08 169.096 1459.06 168.344C1459.08 167.576 1458.93 166.896 1458.61 166.304C1458.3 165.712 1457.88 165.248 1457.33 164.912C1456.81 164.56 1456.2 164.384 1455.51 164.384C1454.82 164.384 1454.2 164.56 1453.64 164.912C1453.09 165.248 1452.67 165.72 1452.37 166.328C1452.06 166.92 1451.91 167.592 1451.91 168.344C1451.91 169.096 1452.06 169.768 1452.37 170.36C1452.67 170.952 1453.09 171.424 1453.64 171.776C1454.2 172.128 1454.82 172.304 1455.51 172.304ZM1464.7 174.68V162.032H1467.58L1467.63 164.624L1467.08 164.912C1467.24 164.336 1467.55 163.816 1468.01 163.352C1468.48 162.872 1469.03 162.488 1469.67 162.2C1470.31 161.912 1470.97 161.768 1471.64 161.768C1472.6 161.768 1473.4 161.96 1474.04 162.344C1474.69 162.728 1475.18 163.304 1475.5 164.072C1475.84 164.84 1476.01 165.8 1476.01 166.952V174.68H1473.05V167.168C1473.05 166.528 1472.97 166 1472.79 165.584C1472.61 165.152 1472.34 164.84 1471.97 164.648C1471.61 164.44 1471.16 164.344 1470.63 164.36C1470.2 164.36 1469.8 164.432 1469.43 164.576C1469.08 164.704 1468.77 164.896 1468.49 165.152C1468.24 165.392 1468.03 165.672 1467.87 165.992C1467.73 166.312 1467.65 166.664 1467.65 167.048V174.68H1466.19C1465.9 174.68 1465.63 174.68 1465.37 174.68C1465.13 174.68 1464.91 174.68 1464.7 174.68Z" fill="#595959"/>
</svg>
