<svg width="1920" height="430" viewBox="0 0 1920 430" fill="none" xmlns="http://www.w3.org/2000/svg">
<rect width="1920" height="430" fill="#FF7C2B"/>
<rect x="902" y="72" width="117.333" height="117.333" rx="58.6667" fill="white"/>
<path d="M963.405 98.7122C963.728 98.1409 964.218 97.6827 964.81 97.3997C965.402 97.1167 966.067 97.0226 966.714 97.1302L967.729 97.3008C969.654 97.6215 971.49 98.3453 973.116 99.4248C974.742 100.504 976.122 101.915 977.165 103.565C978.208 105.214 978.89 107.066 979.168 108.998C979.446 110.929 979.313 112.898 978.777 114.775L976.824 121.606H979.66C981.814 121.606 983.938 122.108 985.864 123.073C987.79 124.037 989.465 125.437 990.756 127.162C992.046 128.887 992.917 130.888 993.299 133.008C993.681 135.128 993.563 137.308 992.955 139.375L988.115 155.83C987.401 158.26 985.918 160.393 983.889 161.911C981.861 163.428 979.396 164.248 976.862 164.247H955.896C952.555 164.247 949.298 163.2 946.583 161.254C945.888 162.183 944.986 162.938 943.948 163.457C942.91 163.977 941.765 164.247 940.605 164.247H935.275C933.296 164.247 931.398 163.461 929.998 162.062C928.599 160.662 927.812 158.764 927.812 156.785V129.068C927.812 124.949 931.156 121.606 935.275 121.606H949.845C950.033 121.606 950.218 121.555 950.381 121.46C950.543 121.365 950.678 121.229 950.77 121.065L963.405 98.7122ZM948.067 154.222L949.756 155.629C951.478 157.066 953.653 157.851 955.896 157.851H976.862C978.014 157.852 979.135 157.48 980.057 156.79C980.98 156.101 981.654 155.131 981.979 154.026L986.819 137.571C987.147 136.458 987.21 135.284 987.005 134.143C986.799 133.001 986.33 131.923 985.635 130.994C984.94 130.065 984.038 129.311 983.001 128.792C981.964 128.272 980.82 128.002 979.66 128.002H972.586C972.091 128.002 971.602 127.887 971.16 127.666C970.717 127.446 970.331 127.125 970.033 126.73C969.735 126.335 969.533 125.876 969.442 125.389C969.352 124.903 969.375 124.402 969.511 123.926L972.628 113.018C973.156 111.171 972.951 109.192 972.055 107.492C971.16 105.792 969.644 104.503 967.823 103.893L956.339 124.211C955.689 125.362 954.746 126.319 953.605 126.985C952.464 127.651 951.166 128.002 949.845 128.002H948.067V154.222ZM941.671 128.002H935.275C934.992 128.002 934.721 128.115 934.521 128.315C934.321 128.514 934.209 128.786 934.209 129.068V156.785C934.209 157.373 934.686 157.851 935.275 157.851H940.605C940.888 157.851 941.159 157.739 941.359 157.539C941.559 157.339 941.671 157.068 941.671 156.785V128.002Z" fill="#FF7C2B"/>
<path d="M738.177 270.373C736.211 270.373 734.394 270.037 732.726 269.365C731.059 268.668 729.603 267.71 728.358 266.491C727.139 265.271 726.193 263.852 725.521 262.235C724.849 260.592 724.513 258.812 724.513 256.896C724.513 255.004 724.849 253.25 725.521 251.632C726.218 249.989 727.188 248.571 728.433 247.376C729.677 246.156 731.133 245.211 732.801 244.539C734.493 243.867 736.31 243.531 738.252 243.531C739.62 243.531 740.94 243.717 742.209 244.091C743.478 244.464 744.623 244.987 745.644 245.659C746.664 246.331 747.51 247.09 748.182 247.936L745.121 251.147C744.424 250.475 743.702 249.915 742.956 249.467C742.234 249.019 741.475 248.67 740.678 248.421C739.882 248.172 739.06 248.048 738.214 248.048C736.97 248.048 735.812 248.272 734.742 248.72C733.697 249.168 732.776 249.79 731.98 250.587C731.208 251.383 730.598 252.316 730.15 253.387C729.702 254.457 729.478 255.627 729.478 256.896C729.478 258.116 729.702 259.273 730.15 260.368C730.623 261.463 731.27 262.421 732.092 263.243C732.913 264.064 733.859 264.711 734.929 265.184C736.024 265.632 737.181 265.856 738.401 265.856C739.322 265.856 740.18 265.719 740.977 265.445C741.773 265.172 742.483 264.798 743.105 264.325C743.727 263.828 744.2 263.255 744.524 262.608C744.872 261.961 745.046 261.264 745.046 260.517V259.696L745.718 260.48H737.99V256.149H749.825C749.875 256.423 749.912 256.734 749.937 257.083C749.962 257.406 749.974 257.73 749.974 258.053C749.999 258.352 750.012 258.613 750.012 258.837C750.012 260.555 749.713 262.123 749.116 263.541C748.518 264.935 747.672 266.142 746.577 267.163C745.507 268.183 744.25 268.98 742.806 269.552C741.388 270.1 739.844 270.373 738.177 270.373ZM754.286 270V250.325H758.803L758.878 256.597L758.243 255.179C758.517 254.183 758.99 253.287 759.662 252.491C760.334 251.694 761.105 251.072 761.976 250.624C762.872 250.151 763.806 249.915 764.776 249.915C765.199 249.915 765.598 249.952 765.971 250.027C766.369 250.101 766.693 250.188 766.942 250.288L765.71 255.328C765.436 255.179 765.1 255.054 764.702 254.955C764.303 254.855 763.905 254.805 763.507 254.805C762.885 254.805 762.287 254.93 761.715 255.179C761.167 255.403 760.682 255.726 760.259 256.149C759.836 256.572 759.5 257.07 759.251 257.643C759.027 258.19 758.915 258.812 758.915 259.509V270H754.286ZM778.158 270.373C776.192 270.373 774.437 269.938 772.894 269.067C771.351 268.171 770.131 266.951 769.235 265.408C768.339 263.865 767.891 262.11 767.891 260.144C767.891 258.178 768.339 256.423 769.235 254.88C770.131 253.337 771.351 252.13 772.894 251.259C774.437 250.363 776.192 249.915 778.158 249.915C780.099 249.915 781.842 250.363 783.385 251.259C784.928 252.13 786.135 253.337 787.006 254.88C787.902 256.423 788.35 258.178 788.35 260.144C788.35 262.11 787.902 263.865 787.006 265.408C786.135 266.951 784.928 268.171 783.385 269.067C781.842 269.938 780.099 270.373 778.158 270.373ZM778.158 266.304C779.228 266.304 780.174 266.03 780.995 265.483C781.842 264.935 782.501 264.201 782.974 263.28C783.472 262.359 783.708 261.314 783.683 260.144C783.708 258.949 783.472 257.892 782.974 256.971C782.501 256.05 781.842 255.328 780.995 254.805C780.174 254.258 779.228 253.984 778.158 253.984C777.088 253.984 776.117 254.258 775.246 254.805C774.4 255.328 773.74 256.062 773.267 257.008C772.794 257.929 772.558 258.974 772.558 260.144C772.558 261.314 772.794 262.359 773.267 263.28C773.74 264.201 774.4 264.935 775.246 265.483C776.117 266.03 777.088 266.304 778.158 266.304ZM800.895 270.373C799.053 270.373 797.398 269.925 795.93 269.029C794.461 268.133 793.304 266.914 792.458 265.371C791.611 263.828 791.188 262.085 791.188 260.144C791.188 258.203 791.611 256.46 792.458 254.917C793.304 253.374 794.461 252.155 795.93 251.259C797.398 250.363 799.053 249.915 800.895 249.915C802.662 249.915 804.267 250.251 805.711 250.923C807.154 251.595 808.274 252.528 809.071 253.723L806.532 256.784C806.159 256.261 805.686 255.788 805.114 255.365C804.541 254.942 803.931 254.606 803.284 254.357C802.637 254.108 801.99 253.984 801.343 253.984C800.248 253.984 799.265 254.258 798.394 254.805C797.547 255.328 796.875 256.062 796.378 257.008C795.88 257.929 795.631 258.974 795.631 260.144C795.631 261.314 795.88 262.359 796.378 263.28C796.9 264.201 797.597 264.935 798.468 265.483C799.339 266.03 800.31 266.304 801.38 266.304C802.027 266.304 802.65 266.204 803.247 266.005C803.869 265.781 804.454 265.47 805.002 265.072C805.549 264.674 806.059 264.176 806.532 263.579L809.071 266.677C808.225 267.772 807.055 268.668 805.562 269.365C804.093 270.037 802.538 270.373 800.895 270.373ZM821.804 270.373C819.738 270.373 817.909 269.938 816.316 269.067C814.748 268.196 813.516 267.013 812.62 265.52C811.749 264.002 811.313 262.272 811.313 260.331C811.313 258.788 811.562 257.381 812.06 256.112C812.558 254.843 813.242 253.748 814.113 252.827C815.009 251.881 816.067 251.159 817.287 250.661C818.531 250.139 819.887 249.877 821.356 249.877C822.65 249.877 823.857 250.126 824.977 250.624C826.097 251.122 827.068 251.806 827.889 252.677C828.711 253.524 829.333 254.544 829.756 255.739C830.204 256.908 830.415 258.19 830.391 259.584L830.353 261.189H814.412L813.553 258.053H826.508L825.911 258.688V257.867C825.836 257.095 825.587 256.423 825.164 255.851C824.741 255.253 824.193 254.793 823.521 254.469C822.874 254.121 822.152 253.947 821.356 253.947C820.136 253.947 819.103 254.183 818.257 254.656C817.436 255.129 816.814 255.813 816.391 256.709C815.967 257.58 815.756 258.676 815.756 259.995C815.756 261.264 816.017 262.372 816.54 263.317C817.087 264.263 817.847 264.997 818.817 265.52C819.813 266.018 820.97 266.267 822.289 266.267C823.21 266.267 824.056 266.117 824.828 265.819C825.599 265.52 826.433 264.985 827.329 264.213L829.607 267.387C828.935 268.009 828.163 268.544 827.292 268.992C826.446 269.415 825.55 269.751 824.604 270C823.658 270.249 822.725 270.373 821.804 270.373ZM834.458 270V250.325H838.975L839.05 256.597L838.415 255.179C838.689 254.183 839.162 253.287 839.834 252.491C840.506 251.694 841.277 251.072 842.148 250.624C843.044 250.151 843.978 249.915 844.948 249.915C845.371 249.915 845.77 249.952 846.143 250.027C846.541 250.101 846.865 250.188 847.114 250.288L845.882 255.328C845.608 255.179 845.272 255.054 844.874 254.955C844.475 254.855 844.077 254.805 843.679 254.805C843.057 254.805 842.459 254.93 841.887 255.179C841.339 255.403 840.854 255.726 840.431 256.149C840.008 256.572 839.672 257.07 839.423 257.643C839.199 258.19 839.087 258.812 839.087 259.509V270H834.458ZM872.42 270.224C870.354 270.224 868.512 269.788 866.894 268.917C865.277 268.021 863.995 266.802 863.049 265.259C862.128 263.691 861.668 261.924 861.668 259.957V243.829H866.558V259.621C866.558 260.791 866.82 261.836 867.342 262.757C867.89 263.653 868.612 264.375 869.508 264.923C870.404 265.47 871.374 265.744 872.42 265.744C873.565 265.744 874.597 265.47 875.518 264.923C876.439 264.375 877.161 263.653 877.684 262.757C878.231 261.836 878.505 260.791 878.505 259.621V243.829H883.209V259.957C883.209 261.924 882.736 263.691 881.79 265.259C880.869 266.802 879.6 268.021 877.982 268.917C876.365 269.788 874.51 270.224 872.42 270.224ZM889.146 270V265.707H893.439V248.16H889.146V243.867H902.586V248.16H898.293V265.707H902.586V270H889.146ZM905.792 275.04L921.248 243.867H925.728L910.347 275.04H905.792ZM940.524 270.224C938.458 270.224 936.616 269.788 934.999 268.917C933.381 268.021 932.099 266.802 931.153 265.259C930.232 263.691 929.772 261.924 929.772 259.957V243.829H934.663V259.621C934.663 260.791 934.924 261.836 935.447 262.757C935.994 263.653 936.716 264.375 937.612 264.923C938.508 265.47 939.479 265.744 940.524 265.744C941.669 265.744 942.702 265.47 943.623 264.923C944.543 264.375 945.265 263.653 945.788 262.757C946.335 261.836 946.609 260.791 946.609 259.621V243.829H951.313V259.957C951.313 261.924 950.84 263.691 949.895 265.259C948.974 266.802 947.704 268.021 946.087 268.917C944.469 269.788 942.615 270.224 940.524 270.224ZM973.387 270L965.285 258.277L954.907 243.867H960.955L968.869 255.44L979.435 270H973.387ZM954.72 270L964.688 255.776L968.123 258.725L960.395 270H954.72ZM969.467 257.867L966.069 255.029L973.387 243.867H979.061L969.467 257.867ZM1005.58 270.373C1003.69 270.373 1001.96 270.05 1000.39 269.403C998.823 268.756 997.467 267.835 996.322 266.64C995.177 265.42 994.281 263.989 993.634 262.347C993.012 260.679 992.7 258.862 992.7 256.896C992.7 255.004 993.036 253.25 993.708 251.632C994.38 250.014 995.314 248.596 996.508 247.376C997.703 246.156 999.097 245.211 1000.69 244.539C1002.28 243.867 1004.01 243.531 1005.88 243.531C1007.15 243.531 1008.38 243.717 1009.58 244.091C1010.77 244.464 1011.86 244.987 1012.86 245.659C1013.86 246.306 1014.69 247.065 1015.36 247.936L1012.26 251.333C1011.62 250.661 1010.94 250.101 1010.25 249.653C1009.58 249.18 1008.87 248.832 1008.12 248.608C1007.4 248.359 1006.65 248.235 1005.88 248.235C1004.73 248.235 1003.65 248.446 1002.63 248.869C1001.64 249.292 1000.76 249.89 1000.02 250.661C999.296 251.433 998.724 252.354 998.3 253.424C997.877 254.469 997.666 255.639 997.666 256.933C997.666 258.252 997.865 259.447 998.263 260.517C998.686 261.588 999.271 262.508 1000.02 263.28C1000.79 264.052 1001.7 264.649 1002.74 265.072C1003.81 265.47 1004.98 265.669 1006.25 265.669C1007.07 265.669 1007.87 265.557 1008.64 265.333C1009.41 265.109 1010.12 264.798 1010.77 264.4C1011.44 263.977 1012.05 263.492 1012.6 262.944L1014.99 266.789C1014.39 267.461 1013.59 268.071 1012.6 268.619C1011.6 269.166 1010.48 269.602 1009.24 269.925C1008.02 270.224 1006.8 270.373 1005.58 270.373ZM1026.62 270.373C1025 270.373 1023.54 269.925 1022.22 269.029C1020.9 268.133 1019.84 266.914 1019.04 265.371C1018.25 263.828 1017.85 262.073 1017.85 260.107C1017.85 258.14 1018.25 256.386 1019.04 254.843C1019.84 253.3 1020.92 252.092 1022.29 251.221C1023.66 250.35 1025.2 249.915 1026.92 249.915C1027.92 249.915 1028.82 250.064 1029.65 250.363C1030.47 250.636 1031.19 251.035 1031.81 251.557C1032.43 252.08 1032.94 252.677 1033.34 253.349C1033.76 254.021 1034.05 254.743 1034.2 255.515L1033.19 255.253V250.325H1037.82V270H1033.15V265.296L1034.24 265.109C1034.06 265.781 1033.74 266.441 1033.27 267.088C1032.82 267.71 1032.25 268.27 1031.55 268.768C1030.88 269.241 1030.12 269.627 1029.27 269.925C1028.45 270.224 1027.57 270.373 1026.62 270.373ZM1027.89 266.304C1028.96 266.304 1029.91 266.043 1030.73 265.52C1031.55 264.997 1032.18 264.276 1032.63 263.355C1033.1 262.409 1033.34 261.326 1033.34 260.107C1033.34 258.912 1033.1 257.854 1032.63 256.933C1032.18 256.012 1031.55 255.291 1030.73 254.768C1029.91 254.245 1028.96 253.984 1027.89 253.984C1026.82 253.984 1025.87 254.245 1025.05 254.768C1024.26 255.291 1023.63 256.012 1023.19 256.933C1022.74 257.854 1022.51 258.912 1022.51 260.107C1022.51 261.326 1022.74 262.409 1023.19 263.355C1023.63 264.276 1024.26 264.997 1025.05 265.52C1025.87 266.043 1026.82 266.304 1027.89 266.304ZM1049.72 270.373C1047.97 270.373 1046.41 270.087 1045.01 269.515C1043.64 268.917 1042.52 268.071 1041.65 266.976L1044.64 264.4C1045.39 265.246 1046.22 265.856 1047.14 266.229C1048.06 266.603 1049.03 266.789 1050.05 266.789C1050.47 266.789 1050.85 266.74 1051.17 266.64C1051.52 266.54 1051.82 266.391 1052.07 266.192C1052.32 265.993 1052.5 265.769 1052.63 265.52C1052.78 265.246 1052.85 264.948 1052.85 264.624C1052.85 264.027 1052.63 263.554 1052.18 263.205C1051.93 263.031 1051.53 262.844 1050.99 262.645C1050.46 262.446 1049.78 262.247 1048.93 262.048C1047.59 261.7 1046.47 261.301 1045.57 260.853C1044.68 260.38 1043.98 259.858 1043.48 259.285C1043.06 258.812 1042.73 258.277 1042.51 257.68C1042.31 257.083 1042.21 256.436 1042.21 255.739C1042.21 254.868 1042.4 254.084 1042.77 253.387C1043.17 252.665 1043.71 252.043 1044.38 251.52C1045.05 250.997 1045.83 250.599 1046.73 250.325C1047.63 250.052 1048.56 249.915 1049.53 249.915C1050.52 249.915 1051.48 250.039 1052.4 250.288C1053.35 250.537 1054.22 250.898 1055.02 251.371C1055.84 251.819 1056.54 252.366 1057.11 253.013L1054.57 255.813C1054.1 255.365 1053.57 254.967 1053 254.619C1052.45 254.27 1051.89 253.996 1051.32 253.797C1050.75 253.573 1050.21 253.461 1049.72 253.461C1049.24 253.461 1048.82 253.511 1048.45 253.611C1048.07 253.685 1047.76 253.81 1047.51 253.984C1047.26 254.158 1047.07 254.382 1046.92 254.656C1046.79 254.905 1046.73 255.204 1046.73 255.552C1046.75 255.851 1046.83 256.137 1046.95 256.411C1047.1 256.66 1047.3 256.871 1047.55 257.045C1047.82 257.22 1048.23 257.419 1048.78 257.643C1049.33 257.867 1050.04 258.078 1050.91 258.277C1052.13 258.601 1053.15 258.962 1053.97 259.36C1054.79 259.758 1055.44 260.219 1055.91 260.741C1056.39 261.189 1056.72 261.712 1056.92 262.309C1057.12 262.907 1057.22 263.566 1057.22 264.288C1057.22 265.458 1056.88 266.503 1056.21 267.424C1055.56 268.345 1054.67 269.067 1053.52 269.589C1052.4 270.112 1051.13 270.373 1049.72 270.373ZM1070.49 270.373C1068.42 270.373 1066.59 269.938 1065 269.067C1063.43 268.196 1062.2 267.013 1061.3 265.52C1060.43 264.002 1060 262.272 1060 260.331C1060 258.788 1060.24 257.381 1060.74 256.112C1061.24 254.843 1061.92 253.748 1062.8 252.827C1063.69 251.881 1064.75 251.159 1065.97 250.661C1067.21 250.139 1068.57 249.877 1070.04 249.877C1071.33 249.877 1072.54 250.126 1073.66 250.624C1074.78 251.122 1075.75 251.806 1076.57 252.677C1077.39 253.524 1078.02 254.544 1078.44 255.739C1078.89 256.908 1079.1 258.19 1079.07 259.584L1079.04 261.189H1063.09L1062.24 258.053H1075.19L1074.59 258.688V257.867C1074.52 257.095 1074.27 256.423 1073.85 255.851C1073.42 255.253 1072.88 254.793 1072.2 254.469C1071.56 254.121 1070.83 253.947 1070.04 253.947C1068.82 253.947 1067.79 254.183 1066.94 254.656C1066.12 255.129 1065.5 255.813 1065.07 256.709C1064.65 257.58 1064.44 258.676 1064.44 259.995C1064.44 261.264 1064.7 262.372 1065.22 263.317C1065.77 264.263 1066.53 264.997 1067.5 265.52C1068.5 266.018 1069.65 266.267 1070.97 266.267C1071.89 266.267 1072.74 266.117 1073.51 265.819C1074.28 265.52 1075.12 264.985 1076.01 264.213L1078.29 267.387C1077.62 268.009 1076.85 268.544 1075.97 268.992C1075.13 269.415 1074.23 269.751 1073.29 270C1072.34 270.249 1071.41 270.373 1070.49 270.373ZM1103.22 270.373C1101.7 270.373 1100.31 270.187 1099.04 269.813C1097.77 269.415 1096.63 268.83 1095.61 268.059C1094.59 267.287 1093.68 266.354 1092.88 265.259L1096.06 261.675C1097.27 263.367 1098.47 264.537 1099.64 265.184C1100.81 265.831 1102.13 266.155 1103.6 266.155C1104.44 266.155 1105.21 266.03 1105.91 265.781C1106.61 265.508 1107.16 265.147 1107.55 264.699C1107.95 264.226 1108.15 263.691 1108.15 263.093C1108.15 262.67 1108.06 262.284 1107.89 261.936C1107.74 261.563 1107.5 261.239 1107.18 260.965C1106.86 260.667 1106.46 260.393 1105.99 260.144C1105.51 259.895 1104.98 259.684 1104.38 259.509C1103.78 259.335 1103.12 259.173 1102.4 259.024C1101.03 258.75 1099.84 258.389 1098.82 257.941C1097.8 257.468 1096.94 256.896 1096.24 256.224C1095.54 255.527 1095.03 254.756 1094.71 253.909C1094.39 253.038 1094.23 252.055 1094.23 250.96C1094.23 249.865 1094.46 248.857 1094.94 247.936C1095.43 247.015 1096.1 246.219 1096.95 245.547C1097.8 244.875 1098.78 244.352 1099.9 243.979C1101.02 243.605 1102.23 243.419 1103.52 243.419C1104.99 243.419 1106.3 243.593 1107.44 243.941C1108.61 244.29 1109.63 244.812 1110.5 245.509C1111.4 246.181 1112.13 247.003 1112.71 247.973L1109.5 251.147C1109 250.375 1108.44 249.74 1107.82 249.243C1107.19 248.72 1106.52 248.334 1105.8 248.085C1105.08 247.812 1104.32 247.675 1103.52 247.675C1102.63 247.675 1101.84 247.799 1101.17 248.048C1100.52 248.297 1100.01 248.658 1099.64 249.131C1099.27 249.579 1099.08 250.126 1099.08 250.773C1099.08 251.271 1099.19 251.719 1099.42 252.117C1099.64 252.491 1099.95 252.827 1100.35 253.125C1100.77 253.424 1101.31 253.685 1101.95 253.909C1102.6 254.133 1103.34 254.332 1104.16 254.507C1105.53 254.78 1106.76 255.154 1107.85 255.627C1108.95 256.075 1109.88 256.622 1110.65 257.269C1111.42 257.892 1112.01 258.613 1112.41 259.435C1112.81 260.231 1113 261.127 1113 262.123C1113 263.84 1112.59 265.321 1111.77 266.565C1110.98 267.785 1109.84 268.731 1108.38 269.403C1106.91 270.05 1105.19 270.373 1103.22 270.373ZM1119.65 270V245.323H1124.24V270H1119.65ZM1115.77 254.581V250.325H1128.53V254.581H1115.77ZM1138.86 270.373C1137.44 270.373 1136.21 270.062 1135.17 269.44C1134.12 268.793 1133.32 267.884 1132.78 266.715C1132.23 265.52 1131.96 264.101 1131.96 262.459V250.325H1136.55V261.488C1136.55 262.533 1136.71 263.429 1137.03 264.176C1137.36 264.898 1137.83 265.458 1138.45 265.856C1139.07 266.254 1139.82 266.453 1140.69 266.453C1141.34 266.453 1141.92 266.354 1142.45 266.155C1142.99 265.931 1143.47 265.632 1143.87 265.259C1144.26 264.86 1144.57 264.4 1144.8 263.877C1145.02 263.33 1145.13 262.745 1145.13 262.123V250.325H1149.73V270H1145.25L1145.17 265.893L1145.99 265.445C1145.69 266.391 1145.18 267.237 1144.46 267.984C1143.77 268.706 1142.93 269.291 1141.96 269.739C1140.99 270.162 1139.96 270.373 1138.86 270.373ZM1163.02 270.373C1161.28 270.373 1159.71 269.938 1158.32 269.067C1156.95 268.171 1155.86 266.964 1155.03 265.445C1154.24 263.902 1153.84 262.135 1153.84 260.144C1153.84 258.178 1154.24 256.423 1155.03 254.88C1155.83 253.337 1156.91 252.13 1158.28 251.259C1159.68 250.363 1161.24 249.915 1162.99 249.915C1163.93 249.915 1164.84 250.064 1165.71 250.363C1166.61 250.661 1167.4 251.072 1168.1 251.595C1168.8 252.092 1169.35 252.652 1169.74 253.275C1170.17 253.897 1170.4 254.544 1170.45 255.216L1169.22 255.365V242.373H1173.81V270H1169.37L1169.26 265.371L1170.15 265.445C1170.13 266.068 1169.91 266.665 1169.48 267.237C1169.08 267.81 1168.56 268.332 1167.91 268.805C1167.27 269.278 1166.51 269.664 1165.64 269.963C1164.79 270.236 1163.92 270.373 1163.02 270.373ZM1163.92 266.491C1164.99 266.491 1165.94 266.217 1166.76 265.669C1167.58 265.122 1168.21 264.375 1168.66 263.429C1169.13 262.484 1169.37 261.388 1169.37 260.144C1169.37 258.924 1169.13 257.842 1168.66 256.896C1168.21 255.925 1167.58 255.179 1166.76 254.656C1165.94 254.108 1164.99 253.835 1163.92 253.835C1162.85 253.835 1161.9 254.108 1161.08 254.656C1160.26 255.179 1159.61 255.925 1159.14 256.896C1158.69 257.842 1158.47 258.924 1158.47 260.144C1158.47 261.388 1158.69 262.484 1159.14 263.429C1159.61 264.375 1160.26 265.122 1161.08 265.669C1161.9 266.217 1162.85 266.491 1163.92 266.491ZM1182.01 278.587L1186.19 268.917L1186.23 271.979L1176.52 250.325H1181.83L1187.24 263.168C1187.41 263.492 1187.59 263.927 1187.76 264.475C1187.94 264.997 1188.08 265.52 1188.21 266.043L1187.28 266.341C1187.45 265.868 1187.64 265.371 1187.84 264.848C1188.03 264.3 1188.22 263.74 1188.4 263.168L1193.03 250.325H1198.36L1190.15 270L1186.79 278.587H1182.01Z" fill="white"/>
<path d="M725.403 349V329.512H728.203L728.277 333.955L727.717 334.141C727.917 333.395 728.24 332.723 728.688 332.125C729.161 331.503 729.721 330.968 730.368 330.52C731.015 330.072 731.725 329.736 732.496 329.512C733.268 329.263 734.077 329.139 734.923 329.139C735.943 329.139 736.852 329.313 737.648 329.661C738.469 329.985 739.154 330.557 739.701 331.379C740.274 332.175 740.709 333.233 741.008 334.552L740.336 334.216L740.597 333.581C740.846 333.009 741.207 332.461 741.68 331.939C742.178 331.391 742.738 330.906 743.36 330.483C744.007 330.06 744.704 329.736 745.451 329.512C746.222 329.263 747.006 329.139 747.803 329.139C749.172 329.139 750.329 329.437 751.275 330.035C752.221 330.607 752.93 331.491 753.403 332.685C753.901 333.88 754.149 335.398 754.149 337.24V349H751.275V337.389C751.275 336.095 751.113 335.037 750.789 334.216C750.466 333.395 749.981 332.785 749.333 332.387C748.711 331.964 747.915 331.752 746.944 331.752C746.098 331.752 745.314 331.901 744.592 332.2C743.895 332.474 743.285 332.872 742.763 333.395C742.265 333.892 741.867 334.465 741.568 335.112C741.294 335.759 741.157 336.456 741.157 337.203V349H738.32V337.352C738.32 336.108 738.146 335.075 737.797 334.253C737.474 333.432 736.989 332.81 736.341 332.387C735.694 331.964 734.898 331.752 733.952 331.752C733.131 331.752 732.372 331.901 731.675 332.2C730.978 332.474 730.368 332.86 729.845 333.357C729.348 333.855 728.949 334.428 728.651 335.075C728.377 335.722 728.24 336.419 728.24 337.165V349H725.403ZM767.072 349.373C765.379 349.373 763.849 348.938 762.48 348.067C761.111 347.171 760.028 345.964 759.232 344.445C758.435 342.902 758.037 341.16 758.037 339.219C758.037 337.252 758.448 335.51 759.269 333.992C760.09 332.474 761.186 331.279 762.554 330.408C763.948 329.537 765.504 329.101 767.221 329.101C768.242 329.101 769.187 329.251 770.058 329.549C770.93 329.848 771.701 330.271 772.373 330.819C773.07 331.341 773.642 331.964 774.09 332.685C774.563 333.382 774.887 334.141 775.061 334.963L774.24 334.552L774.352 329.512H777.152V349H774.314V344.221L775.061 343.736C774.887 344.483 774.551 345.204 774.053 345.901C773.555 346.573 772.946 347.171 772.224 347.693C771.527 348.216 770.73 348.627 769.834 348.925C768.963 349.224 768.042 349.373 767.072 349.373ZM767.706 346.685C769.001 346.685 770.158 346.374 771.178 345.752C772.199 345.105 772.995 344.221 773.568 343.101C774.165 341.956 774.464 340.662 774.464 339.219C774.464 337.775 774.165 336.493 773.568 335.373C772.995 334.253 772.199 333.37 771.178 332.723C770.158 332.076 769.001 331.752 767.706 331.752C766.387 331.752 765.218 332.076 764.197 332.723C763.202 333.37 762.405 334.253 761.808 335.373C761.235 336.493 760.949 337.775 760.949 339.219C760.949 340.637 761.235 341.919 761.808 343.064C762.38 344.184 763.177 345.068 764.197 345.715C765.218 346.362 766.387 346.685 767.706 346.685ZM782.607 349V329.512H785.407L785.481 334.701L785.183 333.992C785.457 333.121 785.892 332.312 786.489 331.565C787.112 330.819 787.846 330.221 788.692 329.773C789.538 329.325 790.472 329.101 791.492 329.101C791.915 329.101 792.313 329.139 792.687 329.213C793.06 329.263 793.371 329.338 793.62 329.437L792.836 332.573C792.513 332.424 792.177 332.324 791.828 332.275C791.505 332.2 791.193 332.163 790.895 332.163C790.049 332.163 789.289 332.312 788.617 332.611C787.945 332.909 787.373 333.332 786.9 333.88C786.427 334.403 786.066 335.012 785.817 335.709C785.569 336.406 785.444 337.153 785.444 337.949V349H782.607ZM799.819 357.587L803.59 348.403L803.851 351.053L794.07 329.512H797.243L803.926 344.445C804.125 344.844 804.324 345.316 804.523 345.864C804.722 346.387 804.909 346.909 805.083 347.432L804.038 347.32C804.212 346.897 804.374 346.461 804.523 346.013C804.697 345.565 804.859 345.13 805.009 344.707L810.87 329.512H814.081L806.203 349L802.843 357.587H799.819ZM824.275 349.373C822.582 349.373 821.052 348.938 819.683 348.067C818.314 347.171 817.231 345.964 816.435 344.445C815.638 342.902 815.24 341.16 815.24 339.219C815.24 337.252 815.651 335.51 816.472 333.992C817.294 332.474 818.389 331.279 819.758 330.408C821.151 329.537 822.707 329.101 824.424 329.101C825.445 329.101 826.39 329.251 827.262 329.549C828.133 329.848 828.904 330.271 829.576 330.819C830.273 331.341 830.846 331.964 831.294 332.685C831.766 333.382 832.09 334.141 832.264 334.963L831.443 334.552L831.555 329.512H834.355V349H831.518V344.221L832.264 343.736C832.09 344.483 831.754 345.204 831.256 345.901C830.758 346.573 830.149 347.171 829.427 347.693C828.73 348.216 827.934 348.627 827.038 348.925C826.166 349.224 825.246 349.373 824.275 349.373ZM824.91 346.685C826.204 346.685 827.361 346.374 828.382 345.752C829.402 345.105 830.198 344.221 830.771 343.101C831.368 341.956 831.667 340.662 831.667 339.219C831.667 337.775 831.368 336.493 830.771 335.373C830.198 334.253 829.402 333.37 828.382 332.723C827.361 332.076 826.204 331.752 824.91 331.752C823.59 331.752 822.421 332.076 821.4 332.723C820.405 333.37 819.608 334.253 819.011 335.373C818.438 336.493 818.152 337.775 818.152 339.219C818.152 340.637 818.438 341.919 819.011 343.064C819.583 344.184 820.38 345.068 821.4 345.715C822.421 346.362 823.59 346.685 824.91 346.685ZM839.773 349V329.512H842.573L842.647 333.955L842.087 334.141C842.286 333.395 842.61 332.723 843.058 332.125C843.531 331.503 844.091 330.968 844.738 330.52C845.385 330.072 846.094 329.736 846.866 329.512C847.638 329.263 848.446 329.139 849.293 329.139C850.313 329.139 851.222 329.313 852.018 329.661C852.839 329.985 853.524 330.557 854.071 331.379C854.644 332.175 855.079 333.233 855.378 334.552L854.706 334.216L854.967 333.581C855.216 333.009 855.577 332.461 856.05 331.939C856.548 331.391 857.108 330.906 857.73 330.483C858.377 330.06 859.074 329.736 859.821 329.512C860.592 329.263 861.376 329.139 862.173 329.139C863.542 329.139 864.699 329.437 865.645 330.035C866.59 330.607 867.3 331.491 867.773 332.685C868.27 333.88 868.519 335.398 868.519 337.24V349H865.645V337.389C865.645 336.095 865.483 335.037 865.159 334.216C864.836 333.395 864.35 332.785 863.703 332.387C863.081 331.964 862.285 331.752 861.314 331.752C860.468 331.752 859.684 331.901 858.962 332.2C858.265 332.474 857.655 332.872 857.133 333.395C856.635 333.892 856.237 334.465 855.938 335.112C855.664 335.759 855.527 336.456 855.527 337.203V349H852.69V337.352C852.69 336.108 852.516 335.075 852.167 334.253C851.844 333.432 851.358 332.81 850.711 332.387C850.064 331.964 849.268 331.752 848.322 331.752C847.501 331.752 846.741 331.901 846.045 332.2C845.348 332.474 844.738 332.86 844.215 333.357C843.717 333.855 843.319 334.428 843.021 335.075C842.747 335.722 842.61 336.419 842.61 337.165V349H839.773ZM880.21 349.373C878.542 349.373 877.049 349.062 875.73 348.44C874.41 347.818 873.365 346.996 872.594 345.976L874.572 344.259C875.294 345.13 876.14 345.789 877.111 346.237C878.106 346.685 879.214 346.909 880.434 346.909C881.056 346.909 881.616 346.847 882.114 346.723C882.611 346.573 883.047 346.362 883.42 346.088C883.794 345.814 884.08 345.491 884.279 345.117C884.478 344.744 884.578 344.333 884.578 343.885C884.578 343.064 884.217 342.38 883.495 341.832C883.171 341.608 882.711 341.384 882.114 341.16C881.516 340.911 880.794 340.675 879.948 340.451C878.554 340.052 877.397 339.654 876.476 339.256C875.555 338.833 874.834 338.348 874.311 337.8C873.938 337.352 873.651 336.867 873.452 336.344C873.278 335.821 873.191 335.249 873.191 334.627C873.191 333.83 873.353 333.096 873.676 332.424C874.025 331.752 874.498 331.167 875.095 330.669C875.717 330.147 876.439 329.761 877.26 329.512C878.106 329.238 879.015 329.101 879.986 329.101C880.906 329.101 881.815 329.226 882.711 329.475C883.607 329.724 884.441 330.084 885.212 330.557C885.984 331.03 886.643 331.59 887.191 332.237L885.474 334.104C885.001 333.606 884.478 333.158 883.906 332.76C883.333 332.362 882.723 332.051 882.076 331.827C881.454 331.603 880.807 331.491 880.135 331.491C879.538 331.491 878.978 331.565 878.455 331.715C877.957 331.864 877.522 332.076 877.148 332.349C876.8 332.598 876.526 332.909 876.327 333.283C876.153 333.656 876.066 334.067 876.066 334.515C876.066 334.888 876.14 335.224 876.29 335.523C876.439 335.821 876.65 336.083 876.924 336.307C877.273 336.58 877.758 336.842 878.38 337.091C879.027 337.315 879.824 337.551 880.77 337.8C881.865 338.099 882.786 338.41 883.532 338.733C884.304 339.032 884.938 339.393 885.436 339.816C886.108 340.314 886.581 340.886 886.855 341.533C887.154 342.18 887.303 342.915 887.303 343.736C887.303 344.831 886.992 345.802 886.37 346.648C885.772 347.494 884.938 348.166 883.868 348.664C882.798 349.137 881.578 349.373 880.21 349.373ZM899.306 349.373C897.614 349.373 896.083 348.938 894.714 348.067C893.345 347.171 892.263 345.964 891.466 344.445C890.67 342.902 890.271 341.16 890.271 339.219C890.271 337.252 890.682 335.51 891.503 333.992C892.325 332.474 893.42 331.279 894.789 330.408C896.183 329.537 897.738 329.101 899.455 329.101C900.476 329.101 901.422 329.251 902.293 329.549C903.164 329.848 903.935 330.271 904.607 330.819C905.304 331.341 905.877 331.964 906.325 332.685C906.798 333.382 907.121 334.141 907.295 334.963L906.474 334.552L906.586 329.512H909.386V349H906.549V344.221L907.295 343.736C907.121 344.483 906.785 345.204 906.287 345.901C905.79 346.573 905.18 347.171 904.458 347.693C903.761 348.216 902.965 348.627 902.069 348.925C901.198 349.224 900.277 349.373 899.306 349.373ZM899.941 346.685C901.235 346.685 902.392 346.374 903.413 345.752C904.433 345.105 905.23 344.221 905.802 343.101C906.399 341.956 906.698 340.662 906.698 339.219C906.698 337.775 906.399 336.493 905.802 335.373C905.23 334.253 904.433 333.37 903.413 332.723C902.392 332.076 901.235 331.752 899.941 331.752C898.622 331.752 897.452 332.076 896.431 332.723C895.436 333.37 894.639 334.253 894.042 335.373C893.47 336.493 893.183 337.775 893.183 339.219C893.183 340.637 893.47 341.919 894.042 343.064C894.615 344.184 895.411 345.068 896.431 345.715C897.452 346.362 898.622 346.685 899.941 346.685ZM923.428 349.373C921.487 349.373 919.757 348.95 918.239 348.104C916.745 347.258 915.575 346.076 914.729 344.557C913.883 343.039 913.46 341.297 913.46 339.331C913.46 337.812 913.696 336.444 914.169 335.224C914.642 333.98 915.302 332.897 916.148 331.976C917.019 331.055 918.052 330.346 919.247 329.848C920.441 329.325 921.735 329.064 923.129 329.064C924.448 329.064 925.643 329.3 926.713 329.773C927.808 330.246 928.742 330.906 929.513 331.752C930.31 332.573 930.907 333.556 931.305 334.701C931.703 335.846 931.878 337.103 931.828 338.472L931.791 339.779H915.551L915.14 337.427H929.663L928.991 338.061V337.165C928.941 336.269 928.679 335.411 928.207 334.589C927.734 333.743 927.062 333.059 926.191 332.536C925.344 332.013 924.324 331.752 923.129 331.752C921.735 331.752 920.528 332.038 919.508 332.611C918.487 333.158 917.703 333.98 917.156 335.075C916.608 336.17 916.335 337.526 916.335 339.144C916.335 340.687 916.633 342.031 917.231 343.176C917.828 344.296 918.674 345.167 919.769 345.789C920.889 346.412 922.233 346.723 923.801 346.723C924.722 346.723 925.631 346.573 926.527 346.275C927.447 345.951 928.455 345.329 929.551 344.408L931.007 346.424C930.434 346.996 929.75 347.507 928.953 347.955C928.157 348.378 927.286 348.726 926.34 349C925.394 349.249 924.423 349.373 923.428 349.373ZM944.391 349.373C942.45 349.373 940.72 348.95 939.202 348.104C937.709 347.258 936.539 346.076 935.693 344.557C934.847 343.039 934.423 341.297 934.423 339.331C934.423 337.812 934.66 336.444 935.133 335.224C935.606 333.98 936.265 332.897 937.111 331.976C937.983 331.055 939.015 330.346 940.21 329.848C941.405 329.325 942.699 329.064 944.093 329.064C945.412 329.064 946.607 329.3 947.677 329.773C948.772 330.246 949.705 330.906 950.477 331.752C951.273 332.573 951.871 333.556 952.269 334.701C952.667 335.846 952.841 337.103 952.791 338.472L952.754 339.779H936.514L936.103 337.427H950.626L949.954 338.061V337.165C949.904 336.269 949.643 335.411 949.17 334.589C948.697 333.743 948.025 333.059 947.154 332.536C946.308 332.013 945.287 331.752 944.093 331.752C942.699 331.752 941.492 332.038 940.471 332.611C939.451 333.158 938.667 333.98 938.119 335.075C937.572 336.17 937.298 337.526 937.298 339.144C937.298 340.687 937.597 342.031 938.194 343.176C938.791 344.296 939.638 345.167 940.733 345.789C941.853 346.412 943.197 346.723 944.765 346.723C945.686 346.723 946.594 346.573 947.49 346.275C948.411 345.951 949.419 345.329 950.514 344.408L951.97 346.424C951.398 346.996 950.713 347.507 949.917 347.955C949.12 348.378 948.249 348.726 947.303 349C946.358 349.249 945.387 349.373 944.391 349.373ZM964.683 349.373C962.916 349.373 961.323 348.938 959.904 348.067C958.511 347.196 957.403 346.001 956.582 344.483C955.785 342.94 955.387 341.197 955.387 339.256C955.387 337.29 955.798 335.548 956.619 334.029C957.44 332.486 958.548 331.279 959.942 330.408C961.335 329.537 962.903 329.101 964.646 329.101C965.616 329.101 966.55 329.251 967.446 329.549C968.367 329.848 969.188 330.271 969.91 330.819C970.631 331.341 971.229 331.951 971.702 332.648C972.175 333.32 972.461 334.029 972.56 334.776L971.702 334.477V321.373H974.502V349H971.739L971.664 344.147L972.374 343.885C972.274 344.582 971.988 345.267 971.515 345.939C971.067 346.586 970.495 347.171 969.798 347.693C969.101 348.216 968.304 348.627 967.408 348.925C966.537 349.224 965.629 349.373 964.683 349.373ZM965.094 346.797C966.388 346.797 967.545 346.474 968.566 345.827C969.586 345.18 970.383 344.284 970.955 343.139C971.552 341.994 971.851 340.687 971.851 339.219C971.851 337.75 971.552 336.456 970.955 335.336C970.383 334.191 969.586 333.295 968.566 332.648C967.545 331.976 966.388 331.64 965.094 331.64C963.75 331.64 962.567 331.976 961.547 332.648C960.551 333.295 959.755 334.191 959.158 335.336C958.585 336.456 958.299 337.75 958.299 339.219C958.299 340.662 958.585 341.956 959.158 343.101C959.73 344.246 960.527 345.155 961.547 345.827C962.567 346.474 963.75 346.797 965.094 346.797ZM988.654 349.373C986.614 349.373 984.871 348.838 983.428 347.768C982.009 346.698 980.914 345.167 980.142 343.176C979.396 341.16 979.022 338.746 979.022 335.933C979.022 333.121 979.396 330.719 980.142 328.728C980.914 326.712 982.009 325.169 983.428 324.099C984.871 323.028 986.614 322.493 988.654 322.493C990.67 322.493 992.4 323.028 993.844 324.099C995.287 325.169 996.382 326.712 997.129 328.728C997.901 330.719 998.286 333.121 998.286 335.933C998.286 338.746 997.901 341.16 997.129 343.176C996.382 345.167 995.287 346.698 993.844 347.768C992.4 348.838 990.67 349.373 988.654 349.373ZM988.654 346.648C990.795 346.648 992.438 345.715 993.582 343.848C994.752 341.981 995.337 339.343 995.337 335.933C995.337 332.524 994.752 329.885 993.582 328.019C992.438 326.152 990.795 325.219 988.654 325.219C986.489 325.219 984.822 326.152 983.652 328.019C982.507 329.885 981.934 332.524 981.934 335.933C981.934 339.343 982.507 341.981 983.652 343.848C984.822 345.715 986.489 346.648 988.654 346.648ZM1007.82 347.731V325.181L1008.9 326.003L1004.05 328.915L1003.19 326.301L1009.65 322.493H1010.77V347.731H1007.82ZM1003.97 349V346.163H1014.69V349H1003.97ZM1024.92 347.731V325.181L1026 326.003L1021.15 328.915L1020.29 326.301L1026.75 322.493H1027.87V347.731H1024.92ZM1021.07 349V346.163H1031.79V349H1021.07ZM1043.77 349L1043.62 348.627L1051.24 332.797L1051.5 334.589C1051 335.46 1050.47 336.232 1049.89 336.904C1049.32 337.551 1048.7 338.099 1048.03 338.547C1047.38 338.995 1046.69 339.343 1045.97 339.592C1045.25 339.816 1044.5 339.928 1043.73 339.928C1042.24 339.928 1040.87 339.542 1039.63 338.771C1038.41 337.999 1037.42 336.979 1036.68 335.709C1035.96 334.44 1035.59 333.034 1035.59 331.491C1035.59 329.773 1035.99 328.23 1036.79 326.861C1037.59 325.492 1038.67 324.422 1040.04 323.651C1041.41 322.854 1042.92 322.456 1044.59 322.456C1045.84 322.456 1046.98 322.68 1048.03 323.128C1049.1 323.576 1050.03 324.198 1050.83 324.995C1051.65 325.791 1052.28 326.724 1052.73 327.795C1053.18 328.84 1053.4 329.972 1053.4 331.192C1053.4 331.914 1053.3 332.71 1053.1 333.581C1052.93 334.428 1052.67 335.336 1052.32 336.307C1051.97 337.252 1051.57 338.248 1051.13 339.293C1050.68 340.339 1050.19 341.409 1049.67 342.504L1046.57 349H1043.77ZM1044.37 337.165C1045.49 337.165 1046.5 336.904 1047.39 336.381C1048.29 335.834 1049 335.112 1049.52 334.216C1050.04 333.32 1050.3 332.324 1050.3 331.229C1050.3 330.109 1050.04 329.089 1049.52 328.168C1049.02 327.247 1048.33 326.525 1047.43 326.003C1046.53 325.48 1045.53 325.219 1044.41 325.219C1043.31 325.219 1042.33 325.48 1041.46 326.003C1040.58 326.525 1039.89 327.235 1039.37 328.131C1038.87 329.027 1038.62 330.047 1038.62 331.192C1038.62 332.287 1038.87 333.283 1039.37 334.179C1039.89 335.075 1040.58 335.796 1041.46 336.344C1042.33 336.892 1043.3 337.165 1044.37 337.165ZM1070.42 355.048C1068.28 355.048 1066.35 354.712 1064.63 354.04C1062.94 353.368 1061.48 352.422 1060.26 351.203C1059.04 349.983 1058.11 348.527 1057.46 346.835C1056.82 345.142 1056.49 343.263 1056.49 341.197C1056.49 338.41 1056.99 335.871 1057.99 333.581C1058.98 331.292 1060.36 329.325 1062.13 327.683C1063.9 326.015 1065.96 324.733 1068.33 323.837C1070.69 322.941 1073.23 322.493 1075.94 322.493C1077.96 322.493 1079.79 322.78 1081.43 323.352C1083.1 323.924 1084.52 324.746 1085.69 325.816C1086.88 326.886 1087.8 328.143 1088.45 329.587C1089.1 331.03 1089.42 332.623 1089.42 334.365C1089.42 336.157 1089.17 337.812 1088.68 339.331C1088.2 340.849 1087.53 342.18 1086.66 343.325C1085.81 344.47 1084.83 345.366 1083.71 346.013C1082.61 346.636 1081.43 346.947 1080.16 346.947C1079.39 346.947 1078.73 346.81 1078.18 346.536C1077.64 346.237 1077.21 345.839 1076.92 345.341C1076.62 344.819 1076.47 344.221 1076.47 343.549C1076.47 343.176 1076.52 342.765 1076.62 342.317C1076.72 341.844 1076.85 341.26 1077.03 340.563L1077.59 341.048C1077.19 342.292 1076.63 343.35 1075.91 344.221C1075.19 345.092 1074.35 345.764 1073.41 346.237C1072.46 346.71 1071.43 346.947 1070.31 346.947C1069.19 346.947 1068.19 346.673 1067.32 346.125C1066.45 345.553 1065.76 344.769 1065.27 343.773C1064.77 342.753 1064.52 341.571 1064.52 340.227C1064.52 338.957 1064.73 337.713 1065.16 336.493C1065.58 335.274 1066.18 334.179 1066.95 333.208C1067.72 332.212 1068.64 331.428 1069.71 330.856C1070.78 330.259 1071.96 329.96 1073.26 329.96C1074.1 329.96 1074.87 330.134 1075.57 330.483C1076.29 330.831 1076.92 331.354 1077.44 332.051C1077.96 332.723 1078.35 333.569 1078.6 334.589L1077.77 335.784L1078.6 330.296H1081.36L1079.27 342.056C1079.17 342.604 1079.17 343.076 1079.27 343.475C1079.39 343.873 1079.59 344.172 1079.86 344.371C1080.16 344.57 1080.51 344.669 1080.91 344.669C1081.73 344.669 1082.5 344.42 1083.22 343.923C1083.95 343.4 1084.59 342.678 1085.17 341.757C1085.74 340.836 1086.19 339.766 1086.51 338.547C1086.86 337.302 1087.03 335.958 1087.03 334.515C1087.03 332.524 1086.57 330.806 1085.65 329.363C1084.73 327.894 1083.42 326.762 1081.73 325.965C1080.06 325.169 1078.1 324.771 1075.83 324.771C1073.32 324.771 1071.02 325.181 1068.93 326.003C1066.86 326.799 1065.08 327.932 1063.59 329.4C1062.12 330.868 1060.97 332.598 1060.15 334.589C1059.33 336.556 1058.92 338.696 1058.92 341.011C1058.92 342.803 1059.18 344.42 1059.7 345.864C1060.25 347.308 1061.02 348.54 1062.02 349.56C1063.01 350.605 1064.23 351.402 1065.68 351.949C1067.12 352.497 1068.73 352.771 1070.49 352.771C1071.61 352.771 1072.63 352.671 1073.56 352.472C1074.5 352.273 1075.4 351.987 1076.24 351.613C1077.09 351.24 1077.94 350.829 1078.78 350.381L1079.9 352.323C1078.71 352.97 1077.57 353.492 1076.5 353.891C1075.43 354.289 1074.39 354.575 1073.37 354.749C1072.37 354.948 1071.39 355.048 1070.42 355.048ZM1070.9 344.557C1071.92 344.557 1072.87 344.284 1073.74 343.736C1074.64 343.164 1075.4 342.404 1076.02 341.459C1076.64 340.488 1077.05 339.43 1077.25 338.285C1077.33 337.912 1077.38 337.588 1077.4 337.315C1077.45 337.041 1077.48 336.78 1077.48 336.531C1077.48 335.684 1077.3 334.95 1076.95 334.328C1076.63 333.706 1076.16 333.22 1075.53 332.872C1074.91 332.524 1074.2 332.349 1073.41 332.349C1072.34 332.349 1071.34 332.71 1070.42 333.432C1069.5 334.154 1068.75 335.124 1068.18 336.344C1067.61 337.564 1067.32 338.895 1067.32 340.339C1067.32 341.608 1067.64 342.628 1068.29 343.4C1068.94 344.172 1069.81 344.557 1070.9 344.557ZM1102.22 357.587C1100.77 357.587 1099.4 357.363 1098.11 356.915C1096.81 356.467 1095.74 355.907 1094.9 355.235L1096.02 352.883C1096.52 353.281 1097.09 353.629 1097.74 353.928C1098.41 354.252 1099.13 354.5 1099.9 354.675C1100.67 354.874 1101.46 354.973 1102.25 354.973C1103.7 354.973 1104.92 354.7 1105.91 354.152C1106.93 353.629 1107.7 352.845 1108.23 351.8C1108.77 350.755 1109.05 349.46 1109.05 347.917V344.184L1109.5 344.072C1109.27 345.018 1108.79 345.901 1108.04 346.723C1107.29 347.519 1106.38 348.166 1105.31 348.664C1104.24 349.137 1103.11 349.373 1101.92 349.373C1100.1 349.373 1098.47 348.938 1097.03 348.067C1095.61 347.196 1094.49 346.001 1093.67 344.483C1092.84 342.94 1092.43 341.197 1092.43 339.256C1092.43 337.29 1092.84 335.548 1093.67 334.029C1094.51 332.486 1095.64 331.279 1097.06 330.408C1098.48 329.537 1100.07 329.101 1101.84 329.101C1102.61 329.101 1103.36 329.201 1104.08 329.4C1104.8 329.574 1105.46 329.836 1106.06 330.184C1106.68 330.532 1107.24 330.931 1107.74 331.379C1108.24 331.827 1108.65 332.312 1108.97 332.835C1109.32 333.357 1109.57 333.892 1109.72 334.44L1108.94 334.328L1109.05 329.512H1111.85V347.805C1111.85 349.373 1111.62 350.755 1111.18 351.949C1110.73 353.169 1110.07 354.189 1109.2 355.011C1108.35 355.857 1107.33 356.492 1106.14 356.915C1104.97 357.363 1103.66 357.587 1102.22 357.587ZM1102.25 346.685C1103.57 346.685 1104.74 346.374 1105.76 345.752C1106.81 345.105 1107.63 344.221 1108.23 343.101C1108.82 341.981 1109.12 340.687 1109.12 339.219C1109.12 337.775 1108.82 336.493 1108.23 335.373C1107.65 334.253 1106.84 333.37 1105.8 332.723C1104.75 332.076 1103.57 331.752 1102.25 331.752C1100.91 331.752 1099.71 332.076 1098.67 332.723C1097.65 333.37 1096.84 334.253 1096.24 335.373C1095.64 336.493 1095.35 337.775 1095.35 339.219C1095.35 340.637 1095.63 341.919 1096.2 343.064C1096.8 344.184 1097.61 345.068 1098.63 345.715C1099.68 346.362 1100.88 346.685 1102.25 346.685ZM1117.26 349V329.512H1120.06L1120.13 333.955L1119.57 334.141C1119.77 333.395 1120.09 332.723 1120.54 332.125C1121.02 331.503 1121.58 330.968 1122.22 330.52C1122.87 330.072 1123.58 329.736 1124.35 329.512C1125.12 329.263 1125.93 329.139 1126.78 329.139C1127.8 329.139 1128.71 329.313 1129.5 329.661C1130.32 329.985 1131.01 330.557 1131.56 331.379C1132.13 332.175 1132.56 333.233 1132.86 334.552L1132.19 334.216L1132.45 333.581C1132.7 333.009 1133.06 332.461 1133.53 331.939C1134.03 331.391 1134.59 330.906 1135.21 330.483C1135.86 330.06 1136.56 329.736 1137.31 329.512C1138.08 329.263 1138.86 329.139 1139.66 329.139C1141.03 329.139 1142.18 329.437 1143.13 330.035C1144.07 330.607 1144.78 331.491 1145.26 332.685C1145.75 333.88 1146 335.398 1146 337.24V349H1143.13V337.389C1143.13 336.095 1142.97 335.037 1142.64 334.216C1142.32 333.395 1141.83 332.785 1141.19 332.387C1140.57 331.964 1139.77 331.752 1138.8 331.752C1137.95 331.752 1137.17 331.901 1136.45 332.2C1135.75 332.474 1135.14 332.872 1134.62 333.395C1134.12 333.892 1133.72 334.465 1133.42 335.112C1133.15 335.759 1133.01 336.456 1133.01 337.203V349H1130.17V337.352C1130.17 336.108 1130 335.075 1129.65 334.253C1129.33 333.432 1128.84 332.81 1128.2 332.387C1127.55 331.964 1126.75 331.752 1125.81 331.752C1124.99 331.752 1124.23 331.901 1123.53 332.2C1122.83 332.474 1122.22 332.86 1121.7 333.357C1121.2 333.855 1120.8 334.428 1120.51 335.075C1120.23 335.722 1120.09 336.419 1120.09 337.165V349H1117.26ZM1158.93 349.373C1157.23 349.373 1155.7 348.938 1154.33 348.067C1152.97 347.171 1151.88 345.964 1151.09 344.445C1150.29 342.902 1149.89 341.16 1149.89 339.219C1149.89 337.252 1150.3 335.51 1151.12 333.992C1151.94 332.474 1153.04 331.279 1154.41 330.408C1155.8 329.537 1157.36 329.101 1159.08 329.101C1160.1 329.101 1161.04 329.251 1161.91 329.549C1162.78 329.848 1163.56 330.271 1164.23 330.819C1164.92 331.341 1165.5 331.964 1165.94 332.685C1166.42 333.382 1166.74 334.141 1166.92 334.963L1166.09 334.552L1166.21 329.512H1169.01V349H1166.17V344.221L1166.92 343.736C1166.74 344.483 1166.41 345.204 1165.91 345.901C1165.41 346.573 1164.8 347.171 1164.08 347.693C1163.38 348.216 1162.58 348.627 1161.69 348.925C1160.82 349.224 1159.9 349.373 1158.93 349.373ZM1159.56 346.685C1160.85 346.685 1162.01 346.374 1163.03 345.752C1164.05 345.105 1164.85 344.221 1165.42 343.101C1166.02 341.956 1166.32 340.662 1166.32 339.219C1166.32 337.775 1166.02 336.493 1165.42 335.373C1164.85 334.253 1164.05 333.37 1163.03 332.723C1162.01 332.076 1160.85 331.752 1159.56 331.752C1158.24 331.752 1157.07 332.076 1156.05 332.723C1155.06 333.37 1154.26 334.253 1153.66 335.373C1153.09 336.493 1152.8 337.775 1152.8 339.219C1152.8 340.637 1153.09 341.919 1153.66 343.064C1154.23 344.184 1155.03 345.068 1156.05 345.715C1157.07 346.362 1158.24 346.685 1159.56 346.685ZM1175.21 349V329.512H1178.01V349H1175.21ZM1176.59 325.293C1175.89 325.293 1175.36 325.119 1174.98 324.771C1174.64 324.397 1174.46 323.9 1174.46 323.277C1174.46 322.655 1174.65 322.157 1175.02 321.784C1175.39 321.411 1175.92 321.224 1176.59 321.224C1177.26 321.224 1177.78 321.411 1178.16 321.784C1178.53 322.132 1178.72 322.63 1178.72 323.277C1178.72 323.875 1178.53 324.36 1178.16 324.733C1177.78 325.107 1177.26 325.293 1176.59 325.293ZM1184.2 349V321.373H1187V349H1184.2ZM1194.04 349.373C1193.37 349.373 1192.84 349.174 1192.47 348.776C1192.12 348.378 1191.95 347.805 1191.95 347.059C1191.95 346.387 1192.13 345.839 1192.51 345.416C1192.91 344.968 1193.42 344.744 1194.04 344.744C1194.71 344.744 1195.22 344.956 1195.57 345.379C1195.94 345.777 1196.13 346.337 1196.13 347.059C1196.13 347.756 1195.93 348.316 1195.53 348.739C1195.16 349.162 1194.66 349.373 1194.04 349.373ZM1209.22 349.373C1207.37 349.373 1205.73 348.938 1204.29 348.067C1202.84 347.171 1201.7 345.964 1200.85 344.445C1200.03 342.902 1199.62 341.16 1199.62 339.219C1199.62 337.277 1200.03 335.548 1200.85 334.029C1201.7 332.486 1202.84 331.279 1204.29 330.408C1205.73 329.537 1207.39 329.101 1209.25 329.101C1210.92 329.101 1212.44 329.437 1213.81 330.109C1215.18 330.756 1216.27 331.665 1217.09 332.835L1215.45 334.851C1214.98 334.228 1214.41 333.681 1213.73 333.208C1213.09 332.735 1212.38 332.374 1211.61 332.125C1210.86 331.852 1210.11 331.715 1209.37 331.715C1208.05 331.715 1206.86 332.051 1205.82 332.723C1204.77 333.37 1203.94 334.253 1203.32 335.373C1202.72 336.493 1202.42 337.775 1202.42 339.219C1202.42 340.662 1202.72 341.956 1203.32 343.101C1203.94 344.221 1204.77 345.105 1205.82 345.752C1206.86 346.399 1208.03 346.723 1209.33 346.723C1210.07 346.723 1210.81 346.611 1211.53 346.387C1212.25 346.138 1212.94 345.789 1213.58 345.341C1214.23 344.893 1214.83 344.333 1215.38 343.661L1217.02 345.677C1216.17 346.797 1215.04 347.693 1213.62 348.365C1212.2 349.037 1210.73 349.373 1209.22 349.373ZM1229.28 349.373C1227.34 349.373 1225.61 348.938 1224.09 348.067C1222.6 347.196 1221.41 345.988 1220.54 344.445C1219.7 342.902 1219.27 341.148 1219.27 339.181C1219.27 337.24 1219.7 335.51 1220.54 333.992C1221.41 332.474 1222.6 331.279 1224.09 330.408C1225.61 329.537 1227.34 329.101 1229.28 329.101C1231.19 329.101 1232.9 329.537 1234.39 330.408C1235.91 331.279 1237.09 332.474 1237.94 333.992C1238.81 335.51 1239.25 337.24 1239.25 339.181C1239.25 341.148 1238.81 342.902 1237.94 344.445C1237.09 345.988 1235.91 347.196 1234.39 348.067C1232.9 348.938 1231.19 349.373 1229.28 349.373ZM1229.28 346.723C1230.65 346.723 1231.87 346.399 1232.94 345.752C1234.01 345.08 1234.84 344.184 1235.44 343.064C1236.04 341.919 1236.33 340.625 1236.33 339.181C1236.33 337.738 1236.04 336.456 1235.44 335.336C1234.84 334.216 1234.01 333.345 1232.94 332.723C1231.87 332.076 1230.65 331.752 1229.28 331.752C1227.91 331.752 1226.68 332.076 1225.58 332.723C1224.51 333.345 1223.67 334.228 1223.04 335.373C1222.45 336.493 1222.16 337.763 1222.18 339.181C1222.16 340.625 1222.45 341.919 1223.04 343.064C1223.67 344.184 1224.51 345.08 1225.58 345.752C1226.68 346.399 1227.91 346.723 1229.28 346.723ZM1243.29 349V329.512H1246.09L1246.17 333.955L1245.61 334.141C1245.81 333.395 1246.13 332.723 1246.58 332.125C1247.05 331.503 1247.61 330.968 1248.26 330.52C1248.91 330.072 1249.62 329.736 1250.39 329.512C1251.16 329.263 1251.97 329.139 1252.81 329.139C1253.83 329.139 1254.74 329.313 1255.54 329.661C1256.36 329.985 1257.04 330.557 1257.59 331.379C1258.16 332.175 1258.6 333.233 1258.9 334.552L1258.23 334.216L1258.49 333.581C1258.74 333.009 1259.1 332.461 1259.57 331.939C1260.07 331.391 1260.63 330.906 1261.25 330.483C1261.9 330.06 1262.59 329.736 1263.34 329.512C1264.11 329.263 1264.9 329.139 1265.69 329.139C1267.06 329.139 1268.22 329.437 1269.17 330.035C1270.11 330.607 1270.82 331.491 1271.29 332.685C1271.79 333.88 1272.04 335.398 1272.04 337.24V349H1269.17V337.389C1269.17 336.095 1269 335.037 1268.68 334.216C1268.36 333.395 1267.87 332.785 1267.22 332.387C1266.6 331.964 1265.81 331.752 1264.83 331.752C1263.99 331.752 1263.2 331.901 1262.48 332.2C1261.79 332.474 1261.18 332.872 1260.65 333.395C1260.16 333.892 1259.76 334.465 1259.46 335.112C1259.19 335.759 1259.05 336.456 1259.05 337.203V349H1256.21V337.352C1256.21 336.108 1256.04 335.075 1255.69 334.253C1255.36 333.432 1254.88 332.81 1254.23 332.387C1253.59 331.964 1252.79 331.752 1251.84 331.752C1251.02 331.752 1250.26 331.901 1249.57 332.2C1248.87 332.474 1248.26 332.86 1247.74 333.357C1247.24 333.855 1246.84 334.428 1246.54 335.075C1246.27 335.722 1246.13 336.419 1246.13 337.165V349H1243.29Z" fill="white"/>
</svg>
