<svg width="520" height="464" viewBox="0 0 520 464" fill="none" xmlns="http://www.w3.org/2000/svg">
<g filter="url(#filter0_i_54_29242)">
<path d="M5.85664 -318.925V-430.347C4.69699 -437.838 6.5205 -447.912 2.22112 -453.44C-1.22494 -457.871 0.210373 -471.838 0.822837 -477.351C2.09475 -488.798 58.7331 -492.717 69.8978 -504.897C75.4363 -510.939 91.7439 -507.553 98.982 -507.553C112.681 -507.553 125.96 -510.07 139.532 -510.07C157.694 -510.07 172.411 -510.159 189.591 -516.362C208.888 -523.331 226.794 -527.874 246.92 -532.163C338.121 -551.599 427.006 -551.403 518.186 -532.163C605.844 -513.666 704.672 -479.386 761.067 -406.877C783.943 -377.465 807.8 -349.88 826.367 -317.387C841.569 -290.784 850.089 -262.445 856.709 -232.652C873.439 -157.367 881.739 -84.0135 881.739 -6.96942V134.397C881.739 157.363 879.653 179.917 879.222 202.772C877.855 275.204 838.38 335.015 799.381 394.106L798.122 396.015C786.075 414.27 777.208 435.035 764.703 452.785C755.723 465.53 739.803 464.061 725.97 462.293C657.923 453.595 588.569 433.071 525.597 406.362C475.343 385.047 426.846 356.49 389.964 315.614C342.175 262.65 334.244 195.61 322.986 128.384C315.946 86.3452 306.054 47.747 285.932 9.6701C273.509 -13.838 259.705 -38.2185 241.886 -58.1464C213.897 -89.4477 180.136 -107.939 143.028 -126.382C109.178 -143.206 74.3121 -159.612 41.6526 -178.678C27.5841 -186.891 16.4196 -198.316 9.77182 -213.355C3.02442 -228.62 5.85664 -247.824 5.85664 -263.973V-318.925Z" fill="#FF7C2B"/>
</g>
<defs>
<filter id="filter0_i_54_29242" x="0" y="-546.667" width="887.072" height="1015.45" filterUnits="userSpaceOnUse" color-interpolation-filters="sRGB">
<feFlood flood-opacity="0" result="BackgroundImageFix"/>
<feBlend mode="normal" in="SourceGraphic" in2="BackgroundImageFix" result="shape"/>
<feColorMatrix in="SourceAlpha" type="matrix" values="0 0 0 0 0 0 0 0 0 0 0 0 0 0 0 0 0 0 127 0" result="hardAlpha"/>
<feOffset dx="8" dy="12"/>
<feGaussianBlur stdDeviation="2.66667"/>
<feComposite in2="hardAlpha" operator="arithmetic" k2="-1" k3="1"/>
<feColorMatrix type="matrix" values="0 0 0 0 0 0 0 0 0 0 0 0 0 0 0 0 0 0 0.25 0"/>
<feBlend mode="normal" in2="shape" result="effect1_innerShadow_54_29242"/>
</filter>
</defs>
</svg>
